<svg width="1440" height="460" viewBox="0 0 1440 460" fill="none" xmlns="http://www.w3.org/2000/svg">
<path d="M851.812 102.965V205.931H842.129H832.587L831.464 267.576C830.903 301.541 830.061 328.686 829.5 327.884C828.938 326.948 820.097 326.279 805.082 326.012C790.207 325.878 781.647 325.21 781.506 324.274C781.366 323.605 780.805 324.675 780.243 326.948C779.401 329.89 778.559 247.518 778.84 188.814C778.84 188.279 766.07 187.611 750.493 187.21L722.006 186.541L721.585 144.018C721.304 107.512 721.023 101.628 719.199 101.628C717.515 101.628 717.094 99.7561 717.094 93.605C717.094 89.1922 716.533 85.5817 715.691 85.5817C714.849 85.5817 714.287 81.3026 714.287 75.5526V65.5236H698.009C682.993 65.5236 681.73 65.6573 681.029 68.198C680.608 69.6689 679.766 70.8724 679.064 70.8724C678.363 70.8724 677.801 73.5468 677.801 76.8899C677.801 81.5701 677.24 82.9073 675.556 82.9073C673.591 82.9073 673.311 84.2445 673.872 91.5992C674.293 98.1515 674.012 100.291 672.609 100.291C671.206 100.291 670.785 108.849 670.785 143.082V185.872H663.066H655.348V289.506C655.348 380.704 655.629 393.14 657.453 393.14C659.277 393.14 659.558 390.465 659.558 377.093V361.047L667.978 360.913C672.609 360.779 677.24 360.646 678.222 360.512C679.485 360.378 680.046 353.558 680.327 331.896L680.608 303.547H685.519H690.431V274.128V244.71H694.641H698.851V235.349C698.851 226.925 699.132 225.989 701.658 225.989C703.903 225.989 704.464 225.053 704.464 221.175C704.464 213.553 708.393 207.268 714.849 204.46C722.427 201.25 724.812 201.25 731.829 205.262C738.284 208.872 742.354 215.157 742.354 221.843C742.354 225.053 742.915 225.989 745.16 225.989C747.686 225.989 747.967 226.925 747.967 234.681C747.967 242.971 748.107 243.372 751.335 243.372C754.422 243.372 754.563 244.041 755.545 253.669C755.966 259.285 756.387 272.791 756.387 283.756V303.547H761.018H765.789L766.631 324.541C767.192 336.175 767.613 361.715 767.613 381.372V417.21H772.525H777.437V424.564V431.919H782.348H787.26V403.035C787.26 377.896 786.979 374.285 785.155 374.954C784.032 375.355 782.068 376.157 780.945 376.558C779.121 377.227 778.98 376.826 780.243 373.75C781.085 371.745 781.366 369.739 780.945 369.338C780.524 368.936 780.243 369.338 780.243 370.14C780.243 371.076 779.261 371.745 778.138 371.745C777.016 371.745 776.033 370.808 776.033 369.739C776.033 367.867 777.156 366.529 782.348 363.053C785.155 361.181 785.155 361.181 782.068 361.047C777.156 361.047 777.156 359.041 782.348 354.495C787.681 349.948 790.207 350.215 794.136 355.564C796.101 358.239 796.241 358.105 797.925 354.896C798.907 353.024 799.469 350.75 798.907 349.547C797.925 347.14 802.275 342.326 805.363 342.326C806.906 342.192 806.485 341.657 804.24 340.454C800.732 338.582 800.872 338.314 808.169 334.57C810.555 333.367 812.098 333.367 813.081 334.303C813.782 334.971 815.607 335.64 816.87 335.64C820.097 335.64 821.36 339.25 818.554 340.855C816.589 341.791 817.01 342.326 820.799 344.198C825.991 346.872 825.43 349.547 820.097 347.541C816.87 346.471 816.589 346.605 817.431 348.611C818.133 349.948 818.834 352.89 819.255 355.297C819.817 359.041 819.536 359.442 816.87 358.774C813.923 358.105 813.923 358.372 813.923 383.646V409.186H817.291C820.518 409.186 820.799 408.518 821.22 402.768C821.641 396.483 821.641 396.483 826.974 396.082C831.605 395.681 832.166 395.279 832.166 391.803C832.166 388.46 834.271 386.454 837.919 386.454C838.621 386.454 839.182 388.593 839.182 391.134C839.182 394.878 839.744 395.814 841.989 395.814C844.375 395.814 844.796 396.75 844.796 402.5C844.796 408.384 845.076 409.186 847.743 409.186C850.69 409.186 850.69 409.053 850.409 363.32C850.269 338.181 850.128 316.518 850.269 315.181C850.409 313.843 851.532 312.907 853.356 312.907C856.443 312.907 856.443 312.64 855.461 295.657C854.479 279.076 854.619 278.407 857.285 277.739C859.531 277.204 860.232 276 860.232 272.256C860.232 268.378 860.794 267.442 862.898 267.442C864.863 267.442 865.845 266.372 866.126 263.698C866.547 260.622 867.67 259.686 873.564 257.814C878.616 256.21 880.721 254.872 881.001 252.867C881.282 251.128 882.545 250.058 884.229 250.058C886.474 250.058 886.895 249.122 886.895 242.704C886.895 238.692 887.597 235.349 888.298 235.349C889.14 235.349 889.702 238.692 889.702 242.704C889.702 249.657 889.842 250.058 893.21 250.058C896.017 250.058 896.718 250.727 896.718 253.268C896.718 256.21 897.56 256.745 903.174 257.547C908.927 258.349 909.489 258.75 909.068 261.96C908.647 264.902 909.208 265.436 912.576 265.838C916.084 266.239 916.365 266.774 916.365 272.256C916.365 277.204 916.786 278.14 919.031 278.14C921.557 278.14 921.697 279.21 921.838 289.105C921.838 313.041 921.838 312.907 924.083 312.907C925.907 312.907 926.188 319.192 926.188 361.047C926.188 408.25 926.188 409.186 928.995 409.186C931.38 409.186 931.801 408.25 931.801 403.704C931.801 400.227 932.643 397.553 933.906 396.617C935.731 395.279 935.871 381.506 935.029 279.745L934.187 164.477H928.012H921.838L921.978 95.8782L922.118 27.4131L887.457 13.6399C868.371 6.15149 852.514 0.000335693 852.233 0.000335693C851.953 0.000335693 851.812 46.2678 851.812 102.965Z" fill="url(#paint0_linear_373_321)"/>
<path d="M545.89 38.6453V43.9942L539.435 44.3953L532.839 44.7965L533.12 145.355L533.4 246.047H526.384H519.227V221.977V197.907H505.194H491.16V152.576C491.16 107.913 491.16 107.244 488.354 107.913C485.828 108.581 485.547 107.913 485.547 103.099C485.547 98.1512 485.267 97.6163 482.039 97.6163C478.952 97.6163 478.531 98.1512 478.531 102.965C478.531 105.907 477.969 108.314 477.127 108.314C476.426 108.314 475.724 105.907 475.724 102.965C475.724 98.5523 475.303 97.6163 472.917 97.6163C470.111 97.6163 469.409 95.7442 469.97 90.3953C470.111 88.2558 469.409 87.9884 464.918 88.7907C461.972 89.1919 452.85 89.593 444.57 89.593H429.415V93.6046C429.415 96.6802 428.853 97.6163 426.608 97.6163C424.222 97.6163 423.801 98.5523 423.801 102.965C423.801 106.843 423.24 108.314 421.696 108.314C420.153 108.314 419.591 106.843 419.591 103.233C419.591 97.4825 418.749 96.1453 415.943 97.2151C414.68 97.6163 413.978 99.8895 413.978 103.099C413.978 108.581 412.996 109.517 410.049 106.709C406.26 103.099 405.558 109.517 405.558 148.029V187.209H378.194H350.829V211.145C350.829 224.25 350.408 237.756 349.987 241.099L349.005 247.25L340.444 247.651L331.884 248.052L331.463 320.395L331.183 392.872L334.971 393.808C337.217 394.343 349.566 395.145 362.757 395.68C382.965 396.349 386.613 396.75 387.034 398.622C387.455 400.494 384.368 400.895 362.476 401.564C341.286 402.233 335.954 402.901 326.973 405.709C321.219 407.448 313.501 409.32 309.852 409.855L303.116 410.791V435.395V460H349.847H396.717L396.016 449.302L395.314 438.605H401.91H408.365V449.302C408.365 459.064 408.646 460 411.171 460C413.697 460 413.978 459.064 413.978 449.302V438.605H420.293C426.327 438.605 426.608 438.738 426.608 442.616C426.608 446.36 426.889 446.628 432.221 446.628H437.834V435.395V424.029L426.327 416.14C419.872 411.86 413.838 407.849 412.855 407.314C411.873 406.779 406.681 409.32 399.945 413.866L388.718 421.355V328.151V235.081L397.98 235.884C403.173 236.419 407.804 237.087 408.365 237.355C409.909 238.291 444.711 244.709 447.938 244.709C450.184 244.709 450.464 243.506 450.464 236.017C450.464 228.262 450.745 227.326 453.271 227.326C455.657 227.326 455.937 228.395 456.358 236.285L456.779 245.378L465.339 247.25L473.9 249.122L474.882 261.959C475.303 269.047 475.724 300.203 475.724 331.227V387.791H482.741H489.757V338.314V288.837H526.945H564.133L564.414 338.581L564.835 388.459H571.149H577.464L577.885 275.866L578.166 163.14L581.674 162.337C585.042 161.535 585.183 161.134 585.183 150.971V140.407H600.619H616.056V92.2674V44.1279H609.741H603.426V38.7791V33.4302H574.658H545.89V38.6453ZM385.912 373.081C385.912 375.622 384.929 375.756 366.265 375.756C347.601 375.756 346.619 375.622 346.619 373.081C346.619 370.541 347.601 370.407 366.265 370.407C384.929 370.407 385.912 370.541 385.912 373.081ZM385.21 385.785C385.21 388.326 384.088 388.459 365.985 388.86L346.619 389.262V385.785V382.308L365.985 382.709C384.088 383.11 385.21 383.244 385.21 385.785ZM385.912 421.221C385.912 423.762 384.929 423.895 366.265 423.895C347.601 423.895 346.619 423.762 346.619 421.221C346.619 418.68 347.601 418.547 366.265 418.547C384.929 418.547 385.912 418.68 385.912 421.221ZM312.238 433.256C312.238 434.994 311.396 436.599 310.554 436.866C308.308 437.669 306.765 434.058 307.887 431.116C309.15 428.041 312.238 429.645 312.238 433.256ZM326.552 431.384C327.534 433.924 323.745 437.936 321.5 436.733C320.658 436.198 319.956 434.326 319.956 432.453C319.956 430.18 320.658 429.244 322.763 429.244C324.306 429.244 325.99 430.18 326.552 431.384ZM338.059 430.448C340.725 432.052 338.901 435.93 335.392 435.93C333.568 435.93 332.586 434.994 332.586 433.523C332.586 429.378 334.55 428.308 338.059 430.448ZM384.508 434.593C384.508 437.134 383.526 437.267 365.564 437.267C347.601 437.267 346.619 437.134 346.619 434.593C346.619 432.052 347.601 431.919 365.564 431.919C383.526 431.919 384.508 432.052 384.508 434.593ZM312.939 445.959C312.939 448.366 312.238 449.302 310.133 449.302C308.028 449.302 307.326 448.366 307.326 445.959C307.326 443.552 308.028 442.616 310.133 442.616C312.238 442.616 312.939 443.552 312.939 445.959ZM325.569 445.959C325.569 448.366 324.868 449.302 322.763 449.302C320.658 449.302 319.956 448.366 319.956 445.959C319.956 443.552 320.658 442.616 322.763 442.616C324.868 442.616 325.569 443.552 325.569 445.959ZM338.199 445.959C338.199 448.366 337.497 449.302 335.392 449.302C332.586 449.302 331.463 445.558 333.568 443.552C335.673 441.413 338.199 442.75 338.199 445.959ZM385.912 446.628C385.912 449.169 384.929 449.302 366.265 449.302C347.601 449.302 346.619 449.169 346.619 446.628C346.619 444.087 347.601 443.953 366.265 443.953C384.929 443.953 385.912 444.087 385.912 446.628Z" fill="url(#paint1_linear_373_321)"/>
<path d="M1032.84 156.454V205.931H1023.86H1015.02L1014.32 238.291C1013.61 266.239 1013.75 384.181 1014.32 408.785C1014.6 416.808 1014.74 417.21 1018.1 417.21H1021.61V385.785V354.361H1039.15H1056.7V299.535V244.71H1082.66H1108.62V295.791C1108.62 324.006 1109.04 357.303 1109.6 370.006L1110.44 392.872L1136.26 392.739L1161.94 392.471V386.588C1161.94 382.041 1161.52 380.971 1159.84 381.64C1158.72 382.041 1157.73 381.774 1157.73 381.105C1157.73 380.303 1156.75 379.768 1155.63 379.768C1152.68 379.768 1152.96 377.628 1156.05 376.425C1158.3 375.622 1158.3 375.489 1155.77 373.75C1153.38 372.012 1153.38 371.745 1155.35 370.942C1156.75 370.541 1157.73 369.338 1157.73 368.268C1157.73 367.064 1159.28 366.396 1162.37 366.396C1167.84 366.396 1174.15 371.611 1171.63 374.018C1170.5 375.088 1170.5 376.291 1171.77 378.431C1172.75 380.035 1172.75 381.105 1172.05 380.57C1168.68 378.564 1166.15 381.372 1166.15 387.256V393.14H1178.22C1188.61 393.14 1190.43 393.407 1190.99 395.547C1191.27 396.884 1192.96 398.489 1194.64 399.157C1197.31 400.361 1197.73 401.698 1198.15 408.785L1198.57 417.21H1204.04C1209.52 417.21 1209.66 417.076 1209.66 412.529V407.849H1222.29H1234.92V416.541V425.233H1240.53H1246.14V413.198C1246.14 401.564 1246 401.029 1242.64 399.826C1239.27 398.622 1237.72 395.814 1240.39 395.814C1241.09 395.814 1241.93 394.611 1242.35 393.006C1242.78 391.402 1243.76 390.599 1244.6 391.134C1245.44 391.535 1246.14 391.268 1246.14 390.599C1246.14 389.797 1247.13 389.128 1248.25 389.128C1249.37 389.128 1250.35 389.663 1250.35 390.465C1250.35 391.134 1251.2 391.803 1252.18 391.803C1253.3 391.803 1254 393.541 1254.14 396.483C1254.28 399.692 1253.72 401.163 1252.32 401.163C1250.77 401.163 1250.35 403.704 1250.35 413.198V425.233H1255.97H1261.58V315.582V205.931H1241.93H1222.29L1222.01 274.396C1222.01 312.105 1222.01 344.064 1222.01 345.402C1222.29 347.541 1221.3 347.808 1215.55 347.407L1208.96 347.006L1208.53 325.878L1208.11 304.75L1204.18 304.082C1200.68 303.413 1200.11 302.477 1198.43 294.721C1196.89 287.5 1196.05 286.163 1193.66 286.163C1185.66 286.029 1184.68 284.96 1183.7 276C1182.71 268.245 1182.29 267.442 1179.49 267.442C1176.68 267.442 1176.12 268.378 1175.28 274.797C1174.29 282.82 1172.05 285.896 1166.29 286.965C1163.21 287.634 1162.09 288.838 1160.82 293.785C1159.84 297.128 1157.31 301.274 1155.07 303.279L1151 306.89L1149.88 340.32C1149.17 358.64 1148.47 372.413 1148.19 370.675C1147.77 368.134 1146.93 367.733 1140.75 367.733C1134.3 367.733 1133.88 367.867 1133.6 371.343C1132.9 383.111 1131.35 317.588 1131.21 262.361L1131.07 197.907H1121.25H1111.43V206.599V215.291H1101.6H1091.78V161.134V106.977H1062.31H1032.84V156.454Z" fill="url(#paint2_linear_373_321)"/>
<path d="M234.354 214.622V264.767H223.127H211.901V336.977C211.901 384.18 212.322 409.186 213.304 409.186C214.146 409.186 214.708 406.378 214.708 402.767C214.708 394.209 219.058 387.122 223.548 388.727C225.232 389.262 230.284 389.663 234.635 389.663L242.774 389.395L244.037 394.343C244.879 397.017 245.861 401.43 246.422 404.105C248.808 417.343 249.79 405.442 249.79 361.047V312.907H266.63H283.47V238.692V164.477H258.912H234.354V214.622Z" fill="url(#paint3_linear_373_321)"/>
<path d="M77.1823 281.482V316.918L39.0122 317.186L0.701658 317.587L0.280663 349.011L0 380.436H22.7337C41.5381 380.57 47.9934 381.104 58.6586 383.511C73.3934 386.988 95.1448 395.68 107.213 403.035L115.072 407.849V355.697V303.546L118.299 303.413C119.983 303.279 124.193 303.145 127.702 303.145C133.736 303.145 134.017 303.279 134.438 307.023C134.859 310.634 136.122 311.703 146.787 316.651C153.242 319.727 159.276 322.267 159.978 322.267C160.82 322.267 161.381 308.227 161.381 284.157V246.046H119.282H77.1823V281.482Z" fill="url(#paint4_linear_373_321)"/>
<path d="M1084.76 252.599C1084.76 254.203 1085.46 255.407 1086.17 255.407C1087.01 255.407 1087.57 254.604 1087.57 253.535C1087.57 252.465 1087.01 251.128 1086.17 250.727C1085.46 250.325 1084.76 251.128 1084.76 252.599Z" fill="url(#paint5_linear_373_321)"/>
<path d="M1062.31 253.401C1062.31 254.471 1063.29 255.407 1064.41 255.407C1065.54 255.407 1066.52 254.471 1066.52 253.401C1066.52 252.331 1065.54 251.395 1064.41 251.395C1063.29 251.395 1062.31 252.331 1062.31 253.401Z" fill="url(#paint6_linear_373_321)"/>
<path d="M1072.13 253.401C1072.13 254.471 1072.83 255.407 1073.54 255.407C1074.38 255.407 1074.94 254.471 1074.94 253.401C1074.94 252.331 1074.38 251.395 1073.54 251.395C1072.83 251.395 1072.13 252.331 1072.13 253.401Z" fill="url(#paint7_linear_373_321)"/>
<path d="M1077.75 253.401C1077.75 254.471 1078.45 255.407 1079.15 255.407C1079.99 255.407 1080.55 254.471 1080.55 253.401C1080.55 252.331 1079.99 251.395 1079.15 251.395C1078.45 251.395 1077.75 252.331 1077.75 253.401Z" fill="url(#paint8_linear_373_321)"/>
<path d="M1090.38 253.401C1090.38 254.471 1091.36 255.407 1092.48 255.407C1093.6 255.407 1094.59 254.471 1094.59 253.401C1094.59 252.331 1093.6 251.395 1092.48 251.395C1091.36 251.395 1090.38 252.331 1090.38 253.401Z" fill="url(#paint9_linear_373_321)"/>
<path d="M1098.8 253.401C1098.8 254.471 1099.78 255.407 1100.9 255.407C1102.02 255.407 1103.01 254.471 1103.01 253.401C1103.01 252.331 1102.02 251.395 1100.9 251.395C1099.78 251.395 1098.8 252.331 1098.8 253.401Z" fill="url(#paint10_linear_373_321)"/>
<path d="M1062.31 260.622C1062.31 261.291 1063.29 262.093 1064.41 262.628C1065.68 263.029 1066.52 262.628 1066.52 261.424C1066.52 260.355 1065.54 259.419 1064.41 259.419C1063.29 259.419 1062.31 259.953 1062.31 260.622Z" fill="url(#paint11_linear_373_321)"/>
<path d="M1068.06 261.559C1068.06 263.03 1068.48 263.431 1068.91 262.361C1069.33 261.425 1069.19 260.221 1068.77 259.82C1068.34 259.285 1067.92 260.088 1068.06 261.559Z" fill="url(#paint12_linear_373_321)"/>
<path d="M1072.13 261.424C1072.13 262.494 1072.83 263.43 1073.54 263.43C1074.38 263.43 1074.94 262.494 1074.94 261.424C1074.94 260.355 1074.38 259.419 1073.54 259.419C1072.83 259.419 1072.13 260.355 1072.13 261.424Z" fill="url(#paint13_linear_373_321)"/>
<path d="M1077.75 261.424C1077.75 262.494 1078.45 263.43 1079.15 263.43C1079.99 263.43 1080.55 262.494 1080.55 261.424C1080.55 260.355 1079.99 259.419 1079.15 259.419C1078.45 259.419 1077.75 260.355 1077.75 261.424Z" fill="url(#paint14_linear_373_321)"/>
<path d="M1084.76 261.424C1084.76 262.494 1085.46 263.43 1086.17 263.43C1087.01 263.43 1087.57 262.494 1087.57 261.424C1087.57 260.355 1087.01 259.419 1086.17 259.419C1085.46 259.419 1084.76 260.355 1084.76 261.424Z" fill="url(#paint15_linear_373_321)"/>
<path d="M1090.38 261.424C1090.38 262.494 1091.36 263.43 1092.48 263.43C1093.6 263.43 1094.59 262.494 1094.59 261.424C1094.59 260.355 1093.6 259.419 1092.48 259.419C1091.36 259.419 1090.38 260.355 1090.38 261.424Z" fill="url(#paint16_linear_373_321)"/>
<path d="M1098.8 261.424C1098.8 262.494 1099.78 263.43 1100.9 263.43C1102.02 263.43 1103.01 262.494 1103.01 261.424C1103.01 260.355 1102.02 259.419 1100.9 259.419C1099.78 259.419 1098.8 260.355 1098.8 261.424Z" fill="url(#paint17_linear_373_321)"/>
<path d="M1062.73 268.11C1062.73 269.18 1063.57 270.116 1064.7 270.116C1065.68 270.116 1066.52 269.18 1066.52 268.11C1066.52 267.041 1065.68 266.105 1064.7 266.105C1063.57 266.105 1062.73 267.041 1062.73 268.11Z" fill="url(#paint18_linear_373_321)"/>
<path d="M1072.13 268.11C1072.13 269.18 1072.83 270.116 1073.54 270.116C1074.38 270.116 1074.94 269.18 1074.94 268.11C1074.94 267.041 1074.38 266.105 1073.54 266.105C1072.83 266.105 1072.13 267.041 1072.13 268.11Z" fill="url(#paint19_linear_373_321)"/>
<path d="M1077.75 268.11C1077.75 269.18 1078.45 270.116 1079.15 270.116C1079.99 270.116 1080.55 269.18 1080.55 268.11C1080.55 267.041 1079.99 266.105 1079.15 266.105C1078.45 266.105 1077.75 267.041 1077.75 268.11Z" fill="url(#paint20_linear_373_321)"/>
<path d="M1084.76 268.11C1084.76 269.18 1085.46 270.116 1086.17 270.116C1087.01 270.116 1087.57 269.18 1087.57 268.11C1087.57 267.041 1087.01 266.105 1086.17 266.105C1085.46 266.105 1084.76 267.041 1084.76 268.11Z" fill="url(#paint21_linear_373_321)"/>
<path d="M1090.38 268.11C1090.38 269.18 1091.36 270.116 1092.48 270.116C1093.6 270.116 1094.59 269.18 1094.59 268.11C1094.59 267.041 1093.6 266.105 1092.48 266.105C1091.36 266.105 1090.38 267.041 1090.38 268.11Z" fill="url(#paint22_linear_373_321)"/>
<path d="M1097.39 268.11C1097.39 269.18 1098.66 270.116 1100.2 270.116C1101.74 270.116 1103.01 269.18 1103.01 268.11C1103.01 267.041 1101.74 266.105 1100.2 266.105C1098.66 266.105 1097.39 267.041 1097.39 268.11Z" fill="url(#paint23_linear_373_321)"/>
<path d="M1063.71 276.133C1063.71 277.203 1064.41 278.139 1065.12 278.139C1065.96 278.139 1066.52 277.203 1066.52 276.133C1066.52 275.064 1065.96 274.128 1065.12 274.128C1064.41 274.128 1063.71 275.064 1063.71 276.133Z" fill="url(#paint24_linear_373_321)"/>
<path d="M1072.13 275.331C1072.13 276.134 1072.83 277.07 1073.54 277.471C1074.38 277.872 1074.94 277.337 1074.94 276.267C1074.94 275.064 1074.38 274.128 1073.54 274.128C1072.83 274.128 1072.13 274.663 1072.13 275.331Z" fill="url(#paint25_linear_373_321)"/>
<path d="M1077.75 276.267C1077.75 277.337 1078.45 277.872 1079.15 277.471C1079.99 277.07 1080.55 276.134 1080.55 275.331C1080.55 274.663 1079.99 274.128 1079.15 274.128C1078.45 274.128 1077.75 275.064 1077.75 276.267Z" fill="url(#paint26_linear_373_321)"/>
<path d="M1084.76 276.267C1084.76 277.337 1085.46 277.872 1086.17 277.471C1087.01 277.07 1087.57 276.134 1087.57 275.331C1087.57 274.663 1087.01 274.128 1086.17 274.128C1085.46 274.128 1084.76 275.064 1084.76 276.267Z" fill="url(#paint27_linear_373_321)"/>
<path d="M1091.78 275.466C1091.78 276.134 1092.48 276.803 1093.18 276.803C1094.02 276.803 1094.59 276.134 1094.59 275.466C1094.59 274.663 1094.02 274.128 1093.18 274.128C1092.48 274.128 1091.78 274.663 1091.78 275.466Z" fill="url(#paint28_linear_373_321)"/>
<path d="M1099.08 275.599C1099.36 276.402 1100.2 276.937 1100.9 276.937C1101.6 276.937 1102.44 276.402 1102.72 275.599C1103.01 274.797 1102.16 274.128 1100.9 274.128C1099.64 274.128 1098.8 274.797 1099.08 275.599Z" fill="url(#paint29_linear_373_321)"/>
<path d="M868.652 280.145C868.652 281.215 869.354 282.151 870.056 282.151C870.898 282.151 871.459 281.215 871.459 280.145C871.459 279.075 870.898 278.139 870.056 278.139C869.354 278.139 868.652 279.075 868.652 280.145Z" fill="url(#paint30_linear_373_321)"/>
<path d="M877.072 280.145C877.072 281.215 877.774 282.151 878.476 282.151C879.318 282.151 879.879 281.215 879.879 280.145C879.879 279.075 879.318 278.139 878.476 278.139C877.774 278.139 877.072 279.075 877.072 280.145Z" fill="url(#paint31_linear_373_321)"/>
<path d="M885.492 280.145C885.492 281.215 886.194 282.151 886.896 282.151C887.737 282.151 888.299 281.215 888.299 280.145C888.299 279.075 887.737 278.139 886.896 278.139C886.194 278.139 885.492 279.075 885.492 280.145Z" fill="url(#paint32_linear_373_321)"/>
<path d="M892.509 280.279C892.509 281.483 893.21 282.151 894.193 281.884C896.719 281.082 897.14 278.14 894.754 278.14C893.491 278.14 892.509 279.076 892.509 280.279Z" fill="url(#paint33_linear_373_321)"/>
<path d="M899.525 280.279C899.525 281.483 900.227 282.151 901.209 281.884C903.735 281.082 904.156 278.14 901.77 278.14C900.507 278.14 899.525 279.076 899.525 280.279Z" fill="url(#paint34_linear_373_321)"/>
<path d="M906.542 280.279C906.542 281.483 907.244 282.151 908.226 281.884C910.752 281.082 911.173 278.14 908.787 278.14C907.524 278.14 906.542 279.076 906.542 280.279Z" fill="url(#paint35_linear_373_321)"/>
<path d="M1063.15 282.82C1062.73 284.023 1063.15 284.826 1064.41 284.826C1065.54 284.826 1066.52 283.89 1066.52 282.82C1066.52 281.75 1065.96 280.814 1065.26 280.814C1064.56 280.814 1063.71 281.75 1063.15 282.82Z" fill="url(#paint36_linear_373_321)"/>
<path d="M1068.06 282.953C1068.06 284.424 1068.48 284.825 1068.91 283.755C1069.33 282.819 1069.19 281.616 1068.77 281.215C1068.34 280.68 1067.92 281.482 1068.06 282.953Z" fill="url(#paint37_linear_373_321)"/>
<path d="M1072.13 282.686C1072.13 283.89 1072.83 284.826 1073.54 284.826C1074.38 284.826 1074.94 284.291 1074.94 283.622C1074.94 282.82 1074.38 281.884 1073.54 281.483C1072.83 281.081 1072.13 281.616 1072.13 282.686Z" fill="url(#paint38_linear_373_321)"/>
<path d="M1077.89 282.953C1077.89 284.424 1078.31 284.825 1078.73 283.755C1079.15 282.819 1079.01 281.616 1078.59 281.215C1078.17 280.68 1077.75 281.482 1077.89 282.953Z" fill="url(#paint39_linear_373_321)"/>
<path d="M1084.76 282.82C1084.76 283.89 1085.46 284.826 1086.17 284.826C1087.01 284.826 1087.57 283.89 1087.57 282.82C1087.57 281.75 1087.01 280.814 1086.17 280.814C1085.46 280.814 1084.76 281.75 1084.76 282.82Z" fill="url(#paint40_linear_373_321)"/>
<path d="M1091.78 282.82C1091.78 283.89 1092.48 284.826 1093.18 284.826C1094.02 284.826 1094.59 283.89 1094.59 282.82C1094.59 281.75 1094.02 280.814 1093.18 280.814C1092.48 280.814 1091.78 281.75 1091.78 282.82Z" fill="url(#paint41_linear_373_321)"/>
<path d="M1098.8 282.82C1098.8 283.89 1099.78 284.826 1100.9 284.826C1102.02 284.826 1103.01 283.89 1103.01 282.82C1103.01 281.75 1102.02 280.814 1100.9 280.814C1099.78 280.814 1098.8 281.75 1098.8 282.82Z" fill="url(#paint42_linear_373_321)"/>
<path d="M877.493 285.762C874.967 286.698 875.248 288.837 877.774 288.837C878.896 288.837 879.879 287.901 879.879 286.832C879.879 285.762 879.738 284.826 879.598 284.959C879.317 284.959 878.335 285.361 877.493 285.762Z" fill="url(#paint43_linear_373_321)"/>
<path d="M884.931 285.762C883.387 287.233 884.089 288.837 886.194 288.837C887.316 288.837 888.299 288.303 888.299 287.634C888.299 285.896 886.053 284.692 884.931 285.762Z" fill="url(#paint44_linear_373_321)"/>
<path d="M868.652 287.5C868.652 288.169 869.354 288.837 870.056 288.837C870.898 288.837 871.459 288.169 871.459 287.5C871.459 286.698 870.898 286.163 870.056 286.163C869.354 286.163 868.652 286.698 868.652 287.5Z" fill="url(#paint45_linear_373_321)"/>
<path d="M892.509 287.5C892.509 288.169 893.491 288.837 894.614 288.837C895.736 288.837 896.719 288.169 896.719 287.5C896.719 286.698 895.736 286.163 894.614 286.163C893.491 286.163 892.509 286.698 892.509 287.5Z" fill="url(#paint46_linear_373_321)"/>
<path d="M899.525 287.5C899.525 288.169 900.507 288.837 901.63 288.837C902.753 288.837 903.735 288.169 903.735 287.5C903.735 286.698 902.753 286.163 901.63 286.163C900.507 286.163 899.525 286.698 899.525 287.5Z" fill="url(#paint47_linear_373_321)"/>
<path d="M906.542 287.5C906.542 288.169 907.524 288.837 908.787 288.837C909.91 288.837 910.471 288.169 910.05 287.5C909.629 286.698 908.647 286.163 907.805 286.163C907.103 286.163 906.542 286.698 906.542 287.5Z" fill="url(#paint48_linear_373_321)"/>
<path d="M1063.71 289.506C1063.71 290.576 1064.41 291.512 1065.12 291.512C1065.96 291.512 1066.52 290.576 1066.52 289.506C1066.52 288.436 1065.96 287.5 1065.12 287.5C1064.41 287.5 1063.71 288.436 1063.71 289.506Z" fill="url(#paint49_linear_373_321)"/>
<path d="M1072.27 289.64C1072.27 291.111 1072.69 291.512 1073.12 290.442C1073.54 289.506 1073.4 288.302 1072.97 287.901C1072.55 287.366 1072.13 288.169 1072.27 289.64Z" fill="url(#paint50_linear_373_321)"/>
<path d="M1077.89 289.64C1077.89 291.111 1078.31 291.512 1078.73 290.442C1079.15 289.506 1079.01 288.302 1078.59 287.901C1078.17 287.366 1077.75 288.169 1077.89 289.64Z" fill="url(#paint51_linear_373_321)"/>
<path d="M1085.18 289.506C1085.18 290.576 1085.74 291.512 1086.45 291.512C1087.01 291.512 1087.57 290.576 1087.57 289.506C1087.57 288.436 1087.01 287.5 1086.45 287.5C1085.74 287.5 1085.18 288.436 1085.18 289.506Z" fill="url(#paint52_linear_373_321)"/>
<path d="M1091.78 289.506C1091.78 290.576 1092.48 291.512 1093.18 291.512C1094.02 291.512 1094.59 290.576 1094.59 289.506C1094.59 288.436 1094.02 287.5 1093.18 287.5C1092.48 287.5 1091.78 288.436 1091.78 289.506Z" fill="url(#paint53_linear_373_321)"/>
<path d="M1098.8 289.506C1098.8 290.576 1099.78 291.512 1100.9 291.512C1102.02 291.512 1103.01 290.576 1103.01 289.506C1103.01 288.436 1102.02 287.5 1100.9 287.5C1099.78 287.5 1098.8 288.436 1098.8 289.506Z" fill="url(#paint54_linear_373_321)"/>
<path d="M868.652 294.988C868.652 296.058 869.354 296.593 870.056 296.192C870.898 295.79 871.459 294.854 871.459 294.052C871.459 293.383 870.898 292.848 870.056 292.848C869.354 292.848 868.652 293.785 868.652 294.988Z" fill="url(#paint55_linear_373_321)"/>
<path d="M877.072 294.855C877.072 295.925 877.774 296.861 878.476 296.861C879.318 296.861 879.879 295.925 879.879 294.855C879.879 293.785 879.318 292.849 878.476 292.849C877.774 292.849 877.072 293.785 877.072 294.855Z" fill="url(#paint56_linear_373_321)"/>
<path d="M885.492 294.855C885.492 295.925 886.194 296.861 886.896 296.861C887.737 296.861 888.299 295.925 888.299 294.855C888.299 293.785 887.737 292.849 886.896 292.849C886.194 292.849 885.492 293.785 885.492 294.855Z" fill="url(#paint57_linear_373_321)"/>
<path d="M892.509 294.855C892.509 296.058 893.21 296.86 894.052 296.593C894.894 296.326 895.596 295.523 895.596 294.855C895.596 294.186 894.894 293.384 894.052 293.116C893.21 292.849 892.509 293.651 892.509 294.855Z" fill="url(#paint58_linear_373_321)"/>
<path d="M899.525 294.988C899.525 296.192 900.227 296.86 901.209 296.593C903.735 295.791 904.156 292.849 901.77 292.849C900.507 292.849 899.525 293.785 899.525 294.988Z" fill="url(#paint59_linear_373_321)"/>
<path d="M906.542 294.988C906.542 296.192 907.244 296.86 908.226 296.593C910.752 295.791 911.173 292.849 908.787 292.849C907.524 292.849 906.542 293.785 906.542 294.988Z" fill="url(#paint60_linear_373_321)"/>
<path d="M498.177 295.524C498.177 296.192 498.879 296.861 499.581 296.861C500.423 296.861 500.984 296.192 500.984 295.524C500.984 294.721 500.423 294.186 499.581 294.186C498.879 294.186 498.177 294.721 498.177 295.524Z" fill="url(#paint61_linear_373_321)"/>
<path d="M505.193 295.524C505.193 296.192 505.895 296.861 506.597 296.861C507.439 296.861 508 296.192 508 295.524C508 294.721 507.439 294.186 506.597 294.186C505.895 294.186 505.193 294.721 505.193 295.524Z" fill="url(#paint62_linear_373_321)"/>
<path d="M1063.71 297.529C1063.71 298.599 1064.41 299.535 1065.12 299.535C1065.96 299.535 1066.52 298.599 1066.52 297.529C1066.52 296.46 1065.96 295.524 1065.12 295.524C1064.41 295.524 1063.71 296.46 1063.71 297.529Z" fill="url(#paint63_linear_373_321)"/>
<path d="M1072.27 297.663C1072.27 299.134 1072.69 299.535 1073.12 298.465C1073.54 297.529 1073.4 296.326 1072.97 295.925C1072.55 295.39 1072.13 296.192 1072.27 297.663Z" fill="url(#paint64_linear_373_321)"/>
<path d="M1085.46 296.86C1085.89 297.529 1086.59 298.197 1087.01 298.197C1087.29 298.197 1087.57 297.529 1087.57 296.86C1087.57 296.058 1086.87 295.523 1086.03 295.523C1085.32 295.523 1085.04 296.058 1085.46 296.86Z" fill="url(#paint65_linear_373_321)"/>
<path d="M1091.78 297.529C1091.78 298.599 1092.34 299.535 1092.9 299.535C1093.6 299.535 1094.16 298.599 1094.16 297.529C1094.16 296.46 1093.6 295.524 1092.9 295.524C1092.34 295.524 1091.78 296.46 1091.78 297.529Z" fill="url(#paint66_linear_373_321)"/>
<path d="M1098.8 296.86C1098.8 297.529 1099.78 298.197 1100.9 298.197C1102.02 298.197 1103.01 297.529 1103.01 296.86C1103.01 296.058 1102.02 295.523 1100.9 295.523C1099.78 295.523 1098.8 296.058 1098.8 296.86Z" fill="url(#paint67_linear_373_321)"/>
<path d="M868.652 302.209C868.652 303.947 869.354 304.616 870.757 304.081C871.88 303.546 872.862 302.476 872.862 301.407C872.862 300.337 871.88 299.534 870.757 299.534C869.635 299.534 868.652 300.738 868.652 302.209Z" fill="url(#paint68_linear_373_321)"/>
<path d="M877.072 302.209C877.072 303.68 877.774 304.884 878.476 304.884C879.318 304.884 879.879 303.68 879.879 302.209C879.879 300.738 879.318 299.535 878.476 299.535C877.774 299.535 877.072 300.738 877.072 302.209Z" fill="url(#paint69_linear_373_321)"/>
<path d="M885.492 301.541C885.492 302.61 886.194 303.546 886.896 303.546C887.737 303.546 888.299 302.61 888.299 301.541C888.299 300.471 887.737 299.535 886.896 299.535C886.194 299.535 885.492 300.471 885.492 301.541Z" fill="url(#paint70_linear_373_321)"/>
<path d="M893.21 301.005C891.807 303.011 893.631 304.348 895.455 302.61C896.438 301.674 896.438 300.872 895.596 300.337C894.754 299.936 893.631 300.203 893.21 301.005Z" fill="url(#paint71_linear_373_321)"/>
<path d="M900.367 300.471C898.824 301.942 899.525 303.546 901.63 303.546C902.753 303.546 903.735 303.012 903.735 302.343C903.735 300.605 901.49 299.401 900.367 300.471Z" fill="url(#paint72_linear_373_321)"/>
<path d="M906.542 301.407C906.542 302.61 907.244 303.546 907.945 303.546C908.787 303.546 909.349 303.012 909.349 302.343C909.349 301.541 908.787 300.605 907.945 300.203C907.244 299.802 906.542 300.337 906.542 301.407Z" fill="url(#paint73_linear_373_321)"/>
<path d="M498.177 302.209C498.177 302.878 498.879 303.546 499.581 303.546C500.423 303.546 500.984 302.878 500.984 302.209C500.984 301.407 500.423 300.872 499.581 300.872C498.879 300.872 498.177 301.407 498.177 302.209Z" fill="url(#paint74_linear_373_321)"/>
<path d="M505.193 302.209C505.193 302.878 505.895 303.546 506.597 303.546C507.439 303.546 508 302.878 508 302.209C508 301.407 507.439 300.872 506.597 300.872C505.895 300.872 505.193 301.407 505.193 302.209Z" fill="url(#paint75_linear_373_321)"/>
<path d="M1064.13 305.151C1063.85 307.291 1064.27 307.558 1065.54 306.355C1066.52 305.419 1066.66 304.483 1065.68 303.547C1064.84 302.744 1064.27 303.279 1064.13 305.151Z" fill="url(#paint76_linear_373_321)"/>
<path d="M1072.41 304.883C1072.41 306.756 1072.69 307.424 1073.11 306.488C1073.4 305.686 1073.4 304.081 1073.11 303.145C1072.69 302.343 1072.41 303.011 1072.41 304.883Z" fill="url(#paint77_linear_373_321)"/>
<path d="M1077.89 304.349C1077.89 305.82 1078.31 306.221 1078.73 305.151C1079.15 304.215 1079.01 303.012 1078.59 302.611C1078.17 302.076 1077.75 302.878 1077.89 304.349Z" fill="url(#paint78_linear_373_321)"/>
<path d="M1086.31 304.349C1086.31 305.82 1086.73 306.221 1087.15 305.151C1087.57 304.215 1087.43 303.012 1087.01 302.611C1086.59 302.076 1086.17 302.878 1086.31 304.349Z" fill="url(#paint79_linear_373_321)"/>
<path d="M1100.9 303.948C1100.34 305.285 1100.2 306.756 1100.76 307.157C1102.16 308.494 1103.29 306.622 1102.58 303.948C1102.02 301.674 1102.02 301.674 1100.9 303.948Z" fill="url(#paint80_linear_373_321)"/>
<path d="M1091.78 304.883C1091.78 305.552 1092.48 306.221 1093.18 306.221C1094.02 306.221 1094.59 305.552 1094.59 304.883C1094.59 304.081 1094.02 303.546 1093.18 303.546C1092.48 303.546 1091.78 304.081 1091.78 304.883Z" fill="url(#paint81_linear_373_321)"/>
<path d="M498.177 309.564C498.177 310.634 498.879 311.57 499.581 311.57C500.423 311.57 500.984 310.634 500.984 309.564C500.984 308.494 500.423 307.558 499.581 307.558C498.879 307.558 498.177 308.494 498.177 309.564Z" fill="url(#paint82_linear_373_321)"/>
<path d="M868.652 309.564C868.652 310.634 869.635 311.57 870.757 311.57C871.88 311.57 872.862 310.634 872.862 309.564C872.862 308.494 871.88 307.558 870.757 307.558C869.635 307.558 868.652 308.494 868.652 309.564Z" fill="url(#paint83_linear_373_321)"/>
<path d="M877.072 309.564C877.072 310.634 877.774 311.57 878.476 311.57C879.318 311.57 879.879 310.634 879.879 309.564C879.879 308.494 879.318 307.558 878.476 307.558C877.774 307.558 877.072 308.494 877.072 309.564Z" fill="url(#paint84_linear_373_321)"/>
<path d="M885.492 309.564C885.492 310.634 886.194 311.57 886.896 311.57C887.737 311.57 888.299 310.634 888.299 309.564C888.299 308.494 887.737 307.558 886.896 307.558C886.194 307.558 885.492 308.494 885.492 309.564Z" fill="url(#paint85_linear_373_321)"/>
<path d="M892.509 309.564C892.509 310.634 893.21 311.57 893.912 311.57C894.754 311.57 895.315 310.634 895.315 309.564C895.315 308.494 894.754 307.558 893.912 307.558C893.21 307.558 892.509 308.494 892.509 309.564Z" fill="url(#paint86_linear_373_321)"/>
<path d="M1064.55 311.436C1063.99 312.372 1063.85 313.442 1064.27 313.843C1065.54 315.047 1066.94 313.308 1066.24 311.436C1065.68 309.965 1065.4 309.965 1064.55 311.436Z" fill="url(#paint87_linear_373_321)"/>
<path d="M1077.89 312.372C1077.89 313.843 1078.31 314.244 1078.73 313.174C1079.15 312.238 1079.01 311.035 1078.59 310.634C1078.17 310.099 1077.75 310.901 1077.89 312.372Z" fill="url(#paint88_linear_373_321)"/>
<path d="M1091.78 312.238C1091.78 313.308 1092.34 314.244 1092.9 314.244C1093.6 314.244 1094.16 313.308 1094.16 312.238C1094.16 311.169 1093.6 310.233 1092.9 310.233C1092.34 310.233 1091.78 311.169 1091.78 312.238Z" fill="url(#paint89_linear_373_321)"/>
<path d="M1099.64 312.238C1099.22 313.442 1099.64 314.244 1100.9 314.244C1102.02 314.244 1103.01 313.308 1103.01 312.238C1103.01 311.169 1102.44 310.233 1101.74 310.233C1101.04 310.233 1100.2 311.169 1099.64 312.238Z" fill="url(#paint90_linear_373_321)"/>
<path d="M498.177 317.587C498.177 318.657 498.879 319.593 499.581 319.593C500.423 319.593 500.984 318.657 500.984 317.587C500.984 316.518 500.423 315.582 499.581 315.582C498.879 315.582 498.177 316.518 498.177 317.587Z" fill="url(#paint91_linear_373_321)"/>
<path d="M505.193 316.918C505.193 317.587 505.895 318.255 506.597 318.255C507.439 318.255 508 317.587 508 316.918C508 316.116 507.439 315.581 506.597 315.581C505.895 315.581 505.193 316.116 505.193 316.918Z" fill="url(#paint92_linear_373_321)"/>
<path d="M868.652 317.587C868.652 318.657 869.635 319.593 870.757 319.593C871.88 319.593 872.862 318.657 872.862 317.587C872.862 316.518 871.88 315.582 870.757 315.582C869.635 315.582 868.652 316.518 868.652 317.587Z" fill="url(#paint93_linear_373_321)"/>
<path d="M877.072 317.587C877.072 318.657 877.774 319.593 878.476 319.593C879.318 319.593 879.879 318.657 879.879 317.587C879.879 316.518 879.318 315.582 878.476 315.582C877.774 315.582 877.072 316.518 877.072 317.587Z" fill="url(#paint94_linear_373_321)"/>
<path d="M885.492 317.587C885.492 318.657 886.194 319.593 886.896 319.593C887.737 319.593 888.299 318.657 888.299 317.587C888.299 316.518 887.737 315.582 886.896 315.582C886.194 315.582 885.492 316.518 885.492 317.587Z" fill="url(#paint95_linear_373_321)"/>
<path d="M892.509 316.785C892.509 317.587 893.21 318.523 893.912 318.924C894.754 319.326 895.315 318.791 895.315 317.721C895.315 316.517 894.754 315.581 893.912 315.581C893.21 315.581 892.509 316.116 892.509 316.785Z" fill="url(#paint96_linear_373_321)"/>
<path d="M899.525 316.918C899.525 317.587 900.227 318.255 900.928 318.255C901.77 318.255 902.332 317.587 902.332 316.918C902.332 316.116 901.77 315.581 900.928 315.581C900.227 315.581 899.525 316.116 899.525 316.918Z" fill="url(#paint97_linear_373_321)"/>
<path d="M906.542 316.918C906.542 317.587 907.244 318.255 907.945 318.255C908.787 318.255 909.349 317.587 909.349 316.918C909.349 316.116 908.787 315.581 907.945 315.581C907.244 315.581 906.542 316.116 906.542 316.918Z" fill="url(#paint98_linear_373_321)"/>
<path d="M1063.71 320.262C1063.71 321.332 1064.41 322.268 1065.12 322.268C1065.96 322.268 1066.52 321.332 1066.52 320.262C1066.52 319.192 1065.96 318.256 1065.12 318.256C1064.41 318.256 1063.71 319.192 1063.71 320.262Z" fill="url(#paint99_linear_373_321)"/>
<path d="M1072.27 320.395C1072.27 321.866 1072.69 322.267 1073.12 321.197C1073.54 320.261 1073.4 319.058 1072.97 318.657C1072.55 318.122 1072.13 318.924 1072.27 320.395Z" fill="url(#paint100_linear_373_321)"/>
<path d="M1077.75 320.262C1077.75 321.332 1078.03 322.268 1078.31 322.268C1078.59 322.268 1079.15 321.332 1079.71 320.262C1080.13 319.192 1079.85 318.256 1079.15 318.256C1078.31 318.256 1077.75 319.192 1077.75 320.262Z" fill="url(#paint101_linear_373_321)"/>
<path d="M1084.76 320.262C1084.76 321.332 1085.32 322.268 1085.89 322.268C1086.59 322.268 1087.15 321.332 1087.15 320.262C1087.15 319.192 1086.59 318.256 1085.89 318.256C1085.32 318.256 1084.76 319.192 1084.76 320.262Z" fill="url(#paint102_linear_373_321)"/>
<path d="M1091.78 320.262C1091.78 321.332 1092.48 322.268 1093.18 322.268C1094.02 322.268 1094.59 321.332 1094.59 320.262C1094.59 319.192 1094.02 318.256 1093.18 318.256C1092.48 318.256 1091.78 319.192 1091.78 320.262Z" fill="url(#paint103_linear_373_321)"/>
<path d="M1099.22 320.262C1099.22 321.332 1100.06 322.268 1101.18 322.268C1102.16 322.268 1103.01 321.332 1103.01 320.262C1103.01 319.192 1102.16 318.256 1101.18 318.256C1100.06 318.256 1099.22 319.192 1099.22 320.262Z" fill="url(#paint104_linear_373_321)"/>
<path d="M498.177 324.273C498.177 325.343 498.879 326.279 499.581 326.279C500.423 326.279 500.984 325.343 500.984 324.273C500.984 323.204 500.423 322.268 499.581 322.268C498.879 322.268 498.177 323.204 498.177 324.273Z" fill="url(#paint105_linear_373_321)"/>
<path d="M505.193 324.273C505.193 325.343 505.895 326.279 506.597 326.279C507.439 326.279 508 325.343 508 324.273C508 323.204 507.439 322.268 506.597 322.268C505.895 322.268 505.193 323.204 505.193 324.273Z" fill="url(#paint106_linear_373_321)"/>
<path d="M877.072 324.942C877.072 325.611 877.774 326.279 878.476 326.279C879.318 326.279 879.879 325.611 879.879 324.942C879.879 324.14 879.318 323.605 878.476 323.605C877.774 323.605 877.072 324.14 877.072 324.942Z" fill="url(#paint107_linear_373_321)"/>
<path d="M885.492 325.61C885.492 326.68 886.194 327.616 886.896 327.616C887.737 327.616 888.299 326.68 888.299 325.61C888.299 324.541 887.737 323.605 886.896 323.605C886.194 323.605 885.492 324.541 885.492 325.61Z" fill="url(#paint108_linear_373_321)"/>
<path d="M892.509 324.942C892.509 325.611 893.21 326.279 893.912 326.279C894.754 326.279 895.315 325.611 895.315 324.942C895.315 324.14 894.754 323.605 893.912 323.605C893.21 323.605 892.509 324.14 892.509 324.942Z" fill="url(#paint109_linear_373_321)"/>
<path d="M899.525 324.942C899.525 325.611 900.227 326.279 900.928 326.279C901.77 326.279 902.332 325.611 902.332 324.942C902.332 324.14 901.77 323.605 900.928 323.605C900.227 323.605 899.525 324.14 899.525 324.942Z" fill="url(#paint110_linear_373_321)"/>
<path d="M1063.71 327.617C1063.71 328.285 1064.41 328.954 1065.12 328.954C1065.96 328.954 1066.52 328.285 1066.52 327.617C1066.52 326.815 1065.96 326.28 1065.12 326.28C1064.41 326.28 1063.71 326.815 1063.71 327.617Z" fill="url(#paint111_linear_373_321)"/>
<path d="M1091.78 327.617C1091.78 328.285 1092.48 328.954 1093.18 328.954C1094.02 328.954 1094.59 328.285 1094.59 327.617C1094.59 326.815 1094.02 326.28 1093.18 326.28C1092.48 326.28 1091.78 326.815 1091.78 327.617Z" fill="url(#paint112_linear_373_321)"/>
<path d="M1099.92 328.553C1100.9 328.954 1102.16 328.82 1102.58 328.419C1103.15 328.018 1102.3 327.617 1100.76 327.75C1099.22 327.75 1098.8 328.152 1099.92 328.553Z" fill="url(#paint113_linear_373_321)"/>
<path d="M498.177 330.291C498.177 330.959 498.879 331.628 499.581 331.628C500.423 331.628 500.984 330.959 500.984 330.291C500.984 329.488 500.423 328.954 499.581 328.954C498.879 328.954 498.177 329.488 498.177 330.291Z" fill="url(#paint114_linear_373_321)"/>
<path d="M505.193 330.291C505.193 330.959 505.895 331.628 506.597 331.628C507.439 331.628 508 330.959 508 330.291C508 329.488 507.439 328.954 506.597 328.954C505.895 328.954 505.193 329.488 505.193 330.291Z" fill="url(#paint115_linear_373_321)"/>
<path d="M893.491 331.227C892.93 331.628 892.509 332.698 892.509 333.5C892.509 334.302 893.21 334.169 894.193 333.233C895.035 332.43 895.456 331.36 895.175 330.959C894.754 330.558 893.912 330.692 893.491 331.227Z" fill="url(#paint116_linear_373_321)"/>
<path d="M868.652 333.232C868.652 333.767 869.635 334.302 870.757 334.302C871.88 334.302 872.862 333.767 872.862 333.232C872.862 332.564 871.88 332.029 870.757 332.029C869.635 332.029 868.652 332.564 868.652 333.232Z" fill="url(#paint117_linear_373_321)"/>
<path d="M877.072 332.965C877.072 333.634 878.055 334.302 879.318 334.302C880.44 334.302 881.002 333.634 880.581 332.965C880.16 332.163 879.177 331.628 878.335 331.628C877.634 331.628 877.072 332.163 877.072 332.965Z" fill="url(#paint118_linear_373_321)"/>
<path d="M885.492 332.965C885.492 333.634 886.194 334.302 886.896 334.302C887.737 334.302 888.299 333.634 888.299 332.965C888.299 332.163 887.737 331.628 886.896 331.628C886.194 331.628 885.492 332.163 885.492 332.965Z" fill="url(#paint119_linear_373_321)"/>
<path d="M1063.71 335.64C1063.71 336.308 1064.41 336.977 1065.12 336.977C1065.96 336.977 1066.52 336.308 1066.52 335.64C1066.52 334.838 1065.96 334.303 1065.12 334.303C1064.41 334.303 1063.71 334.838 1063.71 335.64Z" fill="url(#paint120_linear_373_321)"/>
<path d="M892.509 340.988C892.509 341.657 893.21 342.326 893.912 342.326C894.754 342.326 895.315 341.657 895.315 340.988C895.315 340.186 894.754 339.651 893.912 339.651C893.21 339.651 892.509 340.186 892.509 340.988Z" fill="url(#paint121_linear_373_321)"/>
<path d="M803.258 348.343C800.872 350.081 800.872 350.215 802.977 350.349C804.24 350.349 805.784 349.68 806.205 348.878C807.749 346.604 806.205 346.203 803.258 348.343Z" fill="url(#paint122_linear_373_321)"/>
<path d="M1347.04 347.942C1346.76 348.878 1346.62 362.785 1346.9 378.697L1347.32 407.849H1353.64H1359.95L1359.67 394.477C1359.53 385.25 1358.97 381.104 1357.85 381.506C1355.6 382.174 1352.66 378.965 1353.64 376.692C1354.06 375.622 1353.64 374.285 1352.94 373.75C1350.69 372.546 1352.37 370.407 1355.46 370.407C1356.87 370.407 1358.41 369.203 1358.83 367.732C1359.25 366.261 1360.23 365.058 1361.08 365.058C1361.92 365.058 1362.62 366.261 1362.62 367.732C1362.62 369.738 1363.6 370.407 1366.13 370.407C1370.06 370.407 1370.9 373.616 1367.25 374.953C1365.57 375.622 1365.29 376.157 1366.55 377.36C1368.93 379.634 1368.65 383.779 1366.13 383.779C1364.44 383.779 1364.02 386.052 1364.02 395.814V407.849H1369.64H1375.25V382.04C1375.25 368 1375.67 354.093 1376.09 351.285L1377.07 346.337H1362.2C1351.67 346.337 1347.32 346.872 1347.04 347.942Z" fill="url(#paint123_linear_373_321)"/>
<path d="M877.072 349.145C877.072 349.814 877.774 350.081 878.476 349.68C879.318 349.279 879.879 348.61 879.879 348.209C879.879 347.942 879.318 347.674 878.476 347.674C877.774 347.674 877.072 348.343 877.072 349.145Z" fill="url(#paint124_linear_373_321)"/>
<path d="M799.469 357.035C798.627 359.175 796.943 361.047 795.82 361.047C794.417 361.047 794.978 362.25 797.504 364.791C801.995 369.338 802.275 371.745 798.346 371.745C795.68 371.745 795.399 372.279 796.241 375.756C796.802 378.698 796.522 379.768 794.978 379.768C793.154 379.768 792.873 383.779 792.873 405.843V431.919H800.451H807.889L808.59 396.75C808.871 377.495 808.871 359.843 808.31 357.704C807.468 353.96 807.327 353.826 805.784 356.367C804.24 358.907 804.24 358.907 804.1 355.965C804.1 351.686 801.293 352.355 799.469 357.035Z" fill="url(#paint125_linear_373_321)"/>
<path d="M1041.26 360.913C1041.26 362.517 1041.96 363.721 1042.66 363.721C1043.51 363.721 1044.07 362.918 1044.07 361.849C1044.07 360.779 1043.51 359.442 1042.66 359.04C1041.96 358.639 1041.26 359.442 1041.26 360.913Z" fill="url(#paint126_linear_373_321)"/>
<path d="M1053.19 359.709C1052.63 360.511 1052.77 361.848 1053.61 362.651C1054.45 363.453 1055.29 363.453 1055.99 362.383C1056.56 361.581 1056.42 360.244 1055.57 359.441C1054.73 358.639 1053.89 358.639 1053.19 359.709Z" fill="url(#paint127_linear_373_321)"/>
<path d="M1025.82 361.715C1025.82 362.785 1026.81 363.721 1027.93 363.721C1029.05 363.721 1030.03 362.785 1030.03 361.715C1030.03 360.645 1029.05 359.709 1027.93 359.709C1026.81 359.709 1025.82 360.645 1025.82 361.715Z" fill="url(#paint128_linear_373_321)"/>
<path d="M1034.24 361.715C1034.24 362.785 1034.94 363.721 1035.65 363.721C1036.49 363.721 1037.05 362.785 1037.05 361.715C1037.05 360.645 1036.49 359.709 1035.65 359.709C1034.94 359.709 1034.24 360.645 1034.24 361.715Z" fill="url(#paint129_linear_373_321)"/>
<path d="M1046.87 361.715C1046.87 362.785 1047.57 363.721 1048.28 363.721C1049.12 363.721 1049.68 362.785 1049.68 361.715C1049.68 360.645 1049.12 359.709 1048.28 359.709C1047.57 359.709 1046.87 360.645 1046.87 361.715Z" fill="url(#paint130_linear_373_321)"/>
<path d="M1060.91 361.047C1060.91 361.715 1061.61 362.384 1062.31 362.384C1063.15 362.384 1063.71 361.715 1063.71 361.047C1063.71 360.244 1063.15 359.709 1062.31 359.709C1061.61 359.709 1060.91 360.244 1060.91 361.047Z" fill="url(#paint131_linear_373_321)"/>
<path d="M1382.27 365.192C1382.27 370.674 1387.04 374.686 1409.21 388.058L1426.47 398.354L1427.17 392.738C1427.59 389.663 1427.59 381.238 1427.45 374.017L1426.89 361.046H1404.58H1382.27V365.192Z" fill="url(#paint132_linear_373_321)"/>
<path d="M894.052 364.523C894.052 365.994 894.473 366.396 894.894 365.326C895.315 364.39 895.175 363.186 894.754 362.785C894.333 362.25 893.912 363.053 894.052 364.523Z" fill="url(#paint133_linear_373_321)"/>
<path d="M1025.82 369.738C1025.82 370.808 1026.81 371.744 1027.93 371.744C1029.05 371.744 1030.03 370.808 1030.03 369.738C1030.03 368.669 1029.05 367.733 1027.93 367.733C1026.81 367.733 1025.82 368.669 1025.82 369.738Z" fill="url(#paint134_linear_373_321)"/>
<path d="M1034.24 369.738C1034.24 370.808 1034.94 371.744 1035.65 371.744C1036.49 371.744 1037.05 370.808 1037.05 369.738C1037.05 368.669 1036.49 367.733 1035.65 367.733C1034.94 367.733 1034.24 368.669 1034.24 369.738Z" fill="url(#paint135_linear_373_321)"/>
<path d="M1041.26 369.738C1041.26 370.808 1041.96 371.744 1042.66 371.744C1043.51 371.744 1044.07 370.808 1044.07 369.738C1044.07 368.669 1043.51 367.733 1042.66 367.733C1041.96 367.733 1041.26 368.669 1041.26 369.738Z" fill="url(#paint136_linear_373_321)"/>
<path d="M1046.87 369.738C1046.87 370.808 1047.57 371.744 1048.28 371.744C1049.12 371.744 1049.68 370.808 1049.68 369.738C1049.68 368.669 1049.12 367.733 1048.28 367.733C1047.57 367.733 1046.87 368.669 1046.87 369.738Z" fill="url(#paint137_linear_373_321)"/>
<path d="M1054.03 369.872C1054.03 371.343 1054.45 371.744 1054.87 370.674C1055.29 369.738 1055.15 368.535 1054.73 368.134C1054.31 367.599 1053.89 368.401 1054.03 369.872Z" fill="url(#paint138_linear_373_321)"/>
<path d="M1060.91 369.738C1060.91 370.808 1061.61 371.744 1062.31 371.744C1063.15 371.744 1063.71 370.808 1063.71 369.738C1063.71 368.669 1063.15 367.733 1062.31 367.733C1061.61 367.733 1060.91 368.669 1060.91 369.738Z" fill="url(#paint139_linear_373_321)"/>
<path d="M868.792 372.546C868.792 374.017 869.213 374.418 869.634 373.349C870.055 372.413 869.915 371.209 869.494 370.808C869.073 370.273 868.652 371.075 868.792 372.546Z" fill="url(#paint140_linear_373_321)"/>
<path d="M1027.23 377.762C1027.23 378.832 1027.93 379.768 1028.63 379.768C1029.47 379.768 1030.03 378.832 1030.03 377.762C1030.03 376.692 1029.47 375.756 1028.63 375.756C1027.93 375.756 1027.23 376.692 1027.23 377.762Z" fill="url(#paint141_linear_373_321)"/>
<path d="M1034.24 377.762C1034.24 378.832 1034.94 379.768 1035.65 379.768C1036.49 379.768 1037.05 378.832 1037.05 377.762C1037.05 376.692 1036.49 375.756 1035.65 375.756C1034.94 375.756 1034.24 376.692 1034.24 377.762Z" fill="url(#paint142_linear_373_321)"/>
<path d="M1041.26 377.895C1041.26 378.965 1041.96 379.5 1042.66 379.099C1043.51 378.698 1044.07 377.762 1044.07 376.959C1044.07 376.291 1043.51 375.756 1042.66 375.756C1041.96 375.756 1041.26 376.692 1041.26 377.895Z" fill="url(#paint143_linear_373_321)"/>
<path d="M1046.87 377.092C1046.87 377.761 1047.57 378.43 1048.28 378.43C1049.12 378.43 1049.68 377.761 1049.68 377.092C1049.68 376.29 1049.12 375.755 1048.28 375.755C1047.57 375.755 1046.87 376.29 1046.87 377.092Z" fill="url(#paint144_linear_373_321)"/>
<path d="M1054.03 377.896C1054.03 379.366 1054.45 379.768 1054.87 378.698C1055.29 377.762 1055.15 376.558 1054.73 376.157C1054.31 375.622 1053.89 376.425 1054.03 377.896Z" fill="url(#paint145_linear_373_321)"/>
<path d="M1060.91 377.762C1060.91 378.832 1061.61 379.768 1062.31 379.768C1063.15 379.768 1063.71 378.832 1063.71 377.762C1063.71 376.692 1063.15 375.756 1062.31 375.756C1061.61 375.756 1060.91 376.692 1060.91 377.762Z" fill="url(#paint146_linear_373_321)"/>
<path d="M1382.27 409.186V438.604H1388.58H1394.89V432.052C1394.89 427.506 1394.33 425.232 1392.79 424.698C1389.28 423.494 1390.26 418.948 1394.19 418.011C1396.72 417.343 1398.68 418.011 1400.93 419.884C1403.88 422.558 1403.88 422.825 1401.63 424.43C1399.81 425.634 1399.1 428.041 1399.1 432.453V438.604H1406.12C1412.86 438.604 1413.14 438.471 1413.14 434.727C1413.14 430.581 1415.66 429.244 1424.08 429.244H1428.57V418.145V406.913L1416.37 399.825C1409.49 395.948 1399.67 389.796 1394.33 386.186C1389 382.709 1384.09 379.767 1383.39 379.767C1382.83 379.767 1382.27 393.006 1382.27 409.186Z" fill="url(#paint147_linear_373_321)"/>
<path d="M1027.23 385.785C1027.23 386.854 1027.93 387.791 1028.63 387.791C1029.47 387.791 1030.03 386.854 1030.03 385.785C1030.03 384.715 1029.47 383.779 1028.63 383.779C1027.93 383.779 1027.23 384.715 1027.23 385.785Z" fill="url(#paint148_linear_373_321)"/>
<path d="M1035.09 385.785C1035.65 386.854 1036.21 387.791 1036.49 387.791C1036.77 387.791 1037.05 386.854 1037.05 385.785C1037.05 384.715 1036.49 383.779 1035.65 383.779C1034.95 383.779 1034.66 384.715 1035.09 385.785Z" fill="url(#paint149_linear_373_321)"/>
<path d="M1041.26 384.983C1041.26 385.785 1041.96 386.721 1042.66 387.122C1043.51 387.523 1044.07 386.988 1044.07 385.919C1044.07 384.715 1043.51 383.779 1042.66 383.779C1041.96 383.779 1041.26 384.314 1041.26 384.983Z" fill="url(#paint150_linear_373_321)"/>
<path d="M1047.57 384.983C1047.15 385.651 1047.43 386.587 1048.28 387.122C1048.98 387.523 1049.68 386.988 1049.68 385.919C1049.68 383.512 1048.84 383.111 1047.57 384.983Z" fill="url(#paint151_linear_373_321)"/>
<path d="M1054.03 385.918C1054.03 387.389 1054.45 387.791 1054.87 386.721C1055.29 385.785 1055.15 384.581 1054.73 384.18C1054.31 383.645 1053.89 384.448 1054.03 385.918Z" fill="url(#paint152_linear_373_321)"/>
<path d="M1060.91 385.785C1060.91 386.854 1061.61 387.791 1062.31 387.791C1063.15 387.791 1063.71 386.854 1063.71 385.785C1063.71 384.715 1063.15 383.779 1062.31 383.779C1061.61 383.779 1060.91 384.715 1060.91 385.785Z" fill="url(#paint153_linear_373_321)"/>
<path d="M16.8398 401.831C16.8398 414.535 16.8398 414.535 20.3481 414.535C23.8564 414.535 23.8564 414.535 23.8564 401.831C23.8564 389.128 23.8564 389.128 20.3481 389.128C16.8398 389.128 16.8398 389.128 16.8398 401.831Z" fill="url(#paint154_linear_373_321)"/>
<path d="M29.4697 401.831C29.4697 414.535 29.4697 414.535 32.978 414.535C36.4863 414.535 36.4863 414.401 36.4863 403.436C36.4863 392.471 35.2233 389.128 31.294 389.128C29.8907 389.128 29.4697 392.337 29.4697 401.831Z" fill="url(#paint155_linear_373_321)"/>
<path d="M4.20996 402.5C4.20996 414.401 4.20996 414.535 7.71825 414.535C11.2265 414.535 11.2265 414.401 11.2265 402.5C11.2265 390.599 11.2265 390.465 7.71825 390.465C4.20996 390.465 4.20996 390.599 4.20996 402.5Z" fill="url(#paint156_linear_373_321)"/>
<path d="M42.0996 402.5C42.0996 414.535 42.0996 414.535 45.6079 414.535C49.2565 414.535 49.2565 414.535 48.8355 403.703C48.4145 393.808 48.1339 392.604 45.3272 391.668C42.0996 390.599 42.0996 390.732 42.0996 402.5Z" fill="url(#paint157_linear_373_321)"/>
<path d="M1027.23 393.808C1027.23 394.878 1027.93 395.814 1028.63 395.814C1029.47 395.814 1030.03 394.878 1030.03 393.808C1030.03 392.738 1029.47 391.802 1028.63 391.802C1027.93 391.802 1027.23 392.738 1027.23 393.808Z" fill="url(#paint158_linear_373_321)"/>
<path d="M1034.24 393.808C1034.24 394.878 1034.94 395.814 1035.65 395.814C1036.49 395.814 1037.05 394.878 1037.05 393.808C1037.05 392.738 1036.49 391.802 1035.65 391.802C1034.94 391.802 1034.24 392.738 1034.24 393.808Z" fill="url(#paint159_linear_373_321)"/>
<path d="M1042.8 393.942C1042.8 395.413 1043.22 395.814 1043.65 394.745C1044.07 393.809 1043.93 392.605 1043.51 392.204C1043.08 391.669 1042.66 392.471 1042.8 393.942Z" fill="url(#paint160_linear_373_321)"/>
<path d="M1048.42 393.942C1048.42 395.413 1048.84 395.814 1049.26 394.745C1049.68 393.809 1049.54 392.605 1049.12 392.204C1048.7 391.669 1048.28 392.471 1048.42 393.942Z" fill="url(#paint161_linear_373_321)"/>
<path d="M1054.03 393.942C1054.03 395.413 1054.45 395.814 1054.87 394.745C1055.29 393.809 1055.15 392.605 1054.73 392.204C1054.31 391.669 1053.89 392.471 1054.03 393.942Z" fill="url(#paint162_linear_373_321)"/>
<path d="M56.1328 403.837C56.1328 414.401 56.1328 414.535 59.6411 414.535C63.0091 414.535 63.1494 414.267 63.1494 405.442C63.1494 396.884 62.8687 396.081 59.6411 394.744L56.1328 393.139V403.837Z" fill="url(#paint163_linear_373_321)"/>
<path d="M1060.91 394.61C1060.91 395.279 1061.61 395.546 1062.31 395.145C1063.15 394.744 1063.71 394.075 1063.71 393.674C1063.71 393.407 1063.15 393.139 1062.31 393.139C1061.61 393.139 1060.91 393.808 1060.91 394.61Z" fill="url(#paint164_linear_373_321)"/>
<path d="M68.7627 405.709C68.7627 414.267 68.903 414.535 72.4113 414.535C75.7793 414.535 75.9196 414.267 75.4986 407.715C75.2179 402.232 74.376 400.36 71.9903 398.756L68.7627 396.884V405.709Z" fill="url(#paint165_linear_373_321)"/>
<path d="M1027.23 401.832C1027.23 402.901 1027.93 403.837 1028.63 403.837C1029.47 403.837 1030.03 402.901 1030.03 401.832C1030.03 400.762 1029.47 399.826 1028.63 399.826C1027.93 399.826 1027.23 400.762 1027.23 401.832Z" fill="url(#paint166_linear_373_321)"/>
<path d="M1035.79 401.965C1035.79 403.436 1036.21 403.837 1036.63 402.768C1037.05 401.832 1036.91 400.628 1036.49 400.227C1036.07 399.692 1035.65 400.494 1035.79 401.965Z" fill="url(#paint167_linear_373_321)"/>
<path d="M1042.66 401.966C1042.66 403.035 1043.36 403.57 1044.07 403.169C1044.91 402.768 1045.47 401.832 1045.47 401.03C1045.47 400.361 1044.91 399.826 1044.07 399.826C1043.36 399.826 1042.66 400.762 1042.66 401.966Z" fill="url(#paint168_linear_373_321)"/>
<path d="M1048.42 401.965C1048.42 403.436 1048.84 403.837 1049.26 402.768C1049.68 401.832 1049.54 400.628 1049.12 400.227C1048.7 399.692 1048.28 400.494 1048.42 401.965Z" fill="url(#paint169_linear_373_321)"/>
<path d="M1054.03 401.965C1054.03 403.436 1054.45 403.837 1054.87 402.768C1055.29 401.832 1055.15 400.628 1054.73 400.227C1054.31 399.692 1053.89 400.494 1054.03 401.965Z" fill="url(#paint170_linear_373_321)"/>
<path d="M1060.91 402.634C1060.91 403.302 1061.61 403.57 1062.31 403.168C1063.15 402.767 1063.71 402.099 1063.71 401.698C1063.71 401.43 1063.15 401.163 1062.31 401.163C1061.61 401.163 1060.91 401.831 1060.91 402.634Z" fill="url(#paint171_linear_373_321)"/>
<path d="M81.3921 408.384C81.3921 414.267 81.5324 414.535 85.602 414.535C89.2507 414.535 89.812 414 89.812 410.79C89.812 408.116 88.6893 406.511 85.602 404.773L81.3921 402.366V408.384Z" fill="url(#paint172_linear_373_321)"/>
<path d="M1027.23 409.186C1027.23 409.854 1027.93 410.523 1028.63 410.523C1029.47 410.523 1030.03 409.854 1030.03 409.186C1030.03 408.383 1029.47 407.849 1028.63 407.849C1027.93 407.849 1027.23 408.383 1027.23 409.186Z" fill="url(#paint173_linear_373_321)"/>
<path d="M1042.66 409.186C1042.66 409.854 1043.36 410.523 1044.21 410.523C1044.91 410.523 1045.19 409.854 1044.77 409.186C1044.35 408.383 1043.65 407.849 1043.22 407.849C1042.94 407.849 1042.66 408.383 1042.66 409.186Z" fill="url(#paint174_linear_373_321)"/>
<path d="M1435.59 420.552C1435.59 430.983 1436.01 433.256 1437.7 433.256C1439.38 433.256 1439.8 431.25 1439.94 423.494C1440.08 418.279 1439.94 413.198 1439.8 412.529C1439.66 411.727 1439.38 410.39 1439.38 409.454C1439.38 408.651 1438.54 407.849 1437.42 407.849C1436.01 407.849 1435.59 410.791 1435.59 420.552Z" fill="url(#paint175_linear_373_321)"/>
<path d="M95.4258 412.529C95.4258 413.599 96.6888 414.535 98.2324 414.535C99.7761 414.535 101.039 414.267 101.039 413.866C101.039 413.599 99.7761 412.663 98.2324 411.86C95.9871 410.657 95.4258 410.79 95.4258 412.529Z" fill="url(#paint176_linear_373_321)"/>
<path d="M213.304 427.639C208.252 430.448 203.902 433.791 203.761 435.261C203.481 436.599 201.656 439.273 199.832 441.145C197.446 443.552 196.464 445.959 196.745 449.302L196.885 453.982L197.446 449.035C198.148 443.418 201.516 439.674 203.34 442.482C205.024 445.023 209.655 443.686 210.217 440.61C210.497 439.139 212.041 436.732 213.444 435.128C215.128 433.389 215.83 431.384 215.269 430.046C214.567 428.442 215.409 427.372 218.777 426.168C221.163 425.366 223.127 424.163 223.127 423.628C223.127 422.157 223.548 422.023 213.304 427.639Z" fill="url(#paint177_linear_373_321)"/>
<path d="M191.552 435.93C190.149 437.401 188.465 438.204 187.904 437.802C186.641 437.134 179.764 441.279 179.624 442.75C179.624 443.82 183.553 443.954 188.465 443.018C191.272 442.616 192.254 441.814 191.693 440.477C191.272 439.273 191.552 438.872 192.254 439.273C193.096 439.675 193.657 439.273 193.657 438.204C193.657 437 194.78 436.332 196.183 436.599C197.446 436.733 197.727 436.599 196.744 436.332C195.762 435.93 195.341 435.128 195.762 434.459C197.306 432.186 194.078 433.256 191.552 435.93ZM186.079 439.808C185.518 440.477 186.079 441.279 186.921 441.68C187.904 442.082 187.342 442.215 185.658 442.215C183.273 442.082 182.992 441.68 184.115 440.343C185.799 438.337 187.202 437.936 186.079 439.808Z" fill="url(#paint178_linear_373_321)"/>
<path d="M193.798 443.418C193.798 444.889 194.219 445.291 194.64 444.221C195.061 443.285 194.921 442.081 194.5 441.68C194.079 441.145 193.658 441.948 193.798 443.418Z" fill="url(#paint179_linear_373_321)"/>
<path d="M467.023 444.89C468.006 445.291 469.269 445.157 469.69 444.756C470.251 444.355 469.409 443.954 467.865 444.087C466.322 444.087 465.901 444.488 467.023 444.89Z" fill="url(#paint180_linear_373_321)"/>
<path d="M206.568 448.633C206.568 450.773 206.849 451.575 207.27 450.238C207.55 449.034 207.55 447.162 207.27 446.226C206.849 445.424 206.568 446.36 206.568 448.633Z" fill="url(#paint181_linear_373_321)"/>
<path d="M477.548 453.314C477.548 457.326 477.829 459.064 478.11 456.924C478.39 454.919 478.39 451.709 478.11 449.57C477.829 447.564 477.548 449.302 477.548 453.314Z" fill="url(#paint182_linear_373_321)"/>
<path d="M450.184 453.983C449.903 457.326 450.184 460 450.745 460C451.447 460 451.868 457.326 451.868 453.983C451.868 450.64 451.587 447.965 451.306 447.965C451.026 447.965 450.464 450.64 450.184 453.983Z" fill="url(#paint183_linear_373_321)"/>
<path d="M290.486 455.32C290.486 457.459 291.328 458.663 292.591 458.663C293.854 458.663 294.696 457.459 294.696 455.32C294.696 453.18 293.854 451.977 292.591 451.977C291.328 451.977 290.486 453.18 290.486 455.32Z" fill="url(#paint184_linear_373_321)"/>
<path d="M460.568 456.657C460.568 458.797 460.849 459.599 461.27 458.262C461.551 457.058 461.551 455.186 461.27 454.25C460.849 453.448 460.568 454.384 460.568 456.657Z" fill="url(#paint185_linear_373_321)"/>
<defs>
<linearGradient id="paint0_linear_373_321" x1="795.436" y1="431.919" x2="795.436" y2="0.000335693" gradientUnits="userSpaceOnUse">
<stop stop-color="#F4C430"/>
<stop offset="1" stop-color="#8A2BE2"/>
</linearGradient>
<linearGradient id="paint1_linear_373_321" x1="459.586" y1="460" x2="459.586" y2="33.4302" gradientUnits="userSpaceOnUse">
<stop stop-color="#F4C430"/>
<stop offset="1" stop-color="#8A2BE2"/>
</linearGradient>
<linearGradient id="paint2_linear_373_321" x1="1137.71" y1="425.233" x2="1137.71" y2="106.977" gradientUnits="userSpaceOnUse">
<stop stop-color="#F4C430"/>
<stop offset="1" stop-color="#8A2BE2"/>
</linearGradient>
<linearGradient id="paint3_linear_373_321" x1="247.685" y1="409.206" x2="247.685" y2="164.477" gradientUnits="userSpaceOnUse">
<stop stop-color="#F4C430"/>
<stop offset="1" stop-color="#8A2BE2"/>
</linearGradient>
<linearGradient id="paint4_linear_373_321" x1="80.6906" y1="407.849" x2="80.6906" y2="246.046" gradientUnits="userSpaceOnUse">
<stop stop-color="#F4C430"/>
<stop offset="1" stop-color="#8A2BE2"/>
</linearGradient>
<linearGradient id="paint5_linear_373_321" x1="1086.17" y1="255.407" x2="1086.17" y2="250.624" gradientUnits="userSpaceOnUse">
<stop stop-color="#F4C430"/>
<stop offset="1" stop-color="#8A2BE2"/>
</linearGradient>
<linearGradient id="paint6_linear_373_321" x1="1064.41" y1="255.407" x2="1064.41" y2="251.395" gradientUnits="userSpaceOnUse">
<stop stop-color="#F4C430"/>
<stop offset="1" stop-color="#8A2BE2"/>
</linearGradient>
<linearGradient id="paint7_linear_373_321" x1="1073.54" y1="255.407" x2="1073.54" y2="251.395" gradientUnits="userSpaceOnUse">
<stop stop-color="#F4C430"/>
<stop offset="1" stop-color="#8A2BE2"/>
</linearGradient>
<linearGradient id="paint8_linear_373_321" x1="1079.15" y1="255.407" x2="1079.15" y2="251.395" gradientUnits="userSpaceOnUse">
<stop stop-color="#F4C430"/>
<stop offset="1" stop-color="#8A2BE2"/>
</linearGradient>
<linearGradient id="paint9_linear_373_321" x1="1092.48" y1="255.407" x2="1092.48" y2="251.395" gradientUnits="userSpaceOnUse">
<stop stop-color="#F4C430"/>
<stop offset="1" stop-color="#8A2BE2"/>
</linearGradient>
<linearGradient id="paint10_linear_373_321" x1="1100.9" y1="255.407" x2="1100.9" y2="251.395" gradientUnits="userSpaceOnUse">
<stop stop-color="#F4C430"/>
<stop offset="1" stop-color="#8A2BE2"/>
</linearGradient>
<linearGradient id="paint11_linear_373_321" x1="1064.41" y1="262.778" x2="1064.41" y2="259.419" gradientUnits="userSpaceOnUse">
<stop stop-color="#F4C430"/>
<stop offset="1" stop-color="#8A2BE2"/>
</linearGradient>
<linearGradient id="paint12_linear_373_321" x1="1068.6" y1="262.965" x2="1068.6" y2="259.654" gradientUnits="userSpaceOnUse">
<stop stop-color="#F4C430"/>
<stop offset="1" stop-color="#8A2BE2"/>
</linearGradient>
<linearGradient id="paint13_linear_373_321" x1="1073.54" y1="263.43" x2="1073.54" y2="259.419" gradientUnits="userSpaceOnUse">
<stop stop-color="#F4C430"/>
<stop offset="1" stop-color="#8A2BE2"/>
</linearGradient>
<linearGradient id="paint14_linear_373_321" x1="1079.15" y1="263.43" x2="1079.15" y2="259.419" gradientUnits="userSpaceOnUse">
<stop stop-color="#F4C430"/>
<stop offset="1" stop-color="#8A2BE2"/>
</linearGradient>
<linearGradient id="paint15_linear_373_321" x1="1086.17" y1="263.43" x2="1086.17" y2="259.419" gradientUnits="userSpaceOnUse">
<stop stop-color="#F4C430"/>
<stop offset="1" stop-color="#8A2BE2"/>
</linearGradient>
<linearGradient id="paint16_linear_373_321" x1="1092.48" y1="263.43" x2="1092.48" y2="259.419" gradientUnits="userSpaceOnUse">
<stop stop-color="#F4C430"/>
<stop offset="1" stop-color="#8A2BE2"/>
</linearGradient>
<linearGradient id="paint17_linear_373_321" x1="1100.9" y1="263.43" x2="1100.9" y2="259.419" gradientUnits="userSpaceOnUse">
<stop stop-color="#F4C430"/>
<stop offset="1" stop-color="#8A2BE2"/>
</linearGradient>
<linearGradient id="paint18_linear_373_321" x1="1064.62" y1="270.116" x2="1064.62" y2="266.105" gradientUnits="userSpaceOnUse">
<stop stop-color="#F4C430"/>
<stop offset="1" stop-color="#8A2BE2"/>
</linearGradient>
<linearGradient id="paint19_linear_373_321" x1="1073.54" y1="270.116" x2="1073.54" y2="266.105" gradientUnits="userSpaceOnUse">
<stop stop-color="#F4C430"/>
<stop offset="1" stop-color="#8A2BE2"/>
</linearGradient>
<linearGradient id="paint20_linear_373_321" x1="1079.15" y1="270.116" x2="1079.15" y2="266.105" gradientUnits="userSpaceOnUse">
<stop stop-color="#F4C430"/>
<stop offset="1" stop-color="#8A2BE2"/>
</linearGradient>
<linearGradient id="paint21_linear_373_321" x1="1086.17" y1="270.116" x2="1086.17" y2="266.105" gradientUnits="userSpaceOnUse">
<stop stop-color="#F4C430"/>
<stop offset="1" stop-color="#8A2BE2"/>
</linearGradient>
<linearGradient id="paint22_linear_373_321" x1="1092.48" y1="270.116" x2="1092.48" y2="266.105" gradientUnits="userSpaceOnUse">
<stop stop-color="#F4C430"/>
<stop offset="1" stop-color="#8A2BE2"/>
</linearGradient>
<linearGradient id="paint23_linear_373_321" x1="1100.2" y1="270.116" x2="1100.2" y2="266.105" gradientUnits="userSpaceOnUse">
<stop stop-color="#F4C430"/>
<stop offset="1" stop-color="#8A2BE2"/>
</linearGradient>
<linearGradient id="paint24_linear_373_321" x1="1065.12" y1="278.139" x2="1065.12" y2="274.128" gradientUnits="userSpaceOnUse">
<stop stop-color="#F4C430"/>
<stop offset="1" stop-color="#8A2BE2"/>
</linearGradient>
<linearGradient id="paint25_linear_373_321" x1="1073.54" y1="277.604" x2="1073.54" y2="274.128" gradientUnits="userSpaceOnUse">
<stop stop-color="#F4C430"/>
<stop offset="1" stop-color="#8A2BE2"/>
</linearGradient>
<linearGradient id="paint26_linear_373_321" x1="1079.15" y1="277.604" x2="1079.15" y2="274.128" gradientUnits="userSpaceOnUse">
<stop stop-color="#F4C430"/>
<stop offset="1" stop-color="#8A2BE2"/>
</linearGradient>
<linearGradient id="paint27_linear_373_321" x1="1086.17" y1="277.604" x2="1086.17" y2="274.128" gradientUnits="userSpaceOnUse">
<stop stop-color="#F4C430"/>
<stop offset="1" stop-color="#8A2BE2"/>
</linearGradient>
<linearGradient id="paint28_linear_373_321" x1="1093.18" y1="276.803" x2="1093.18" y2="274.128" gradientUnits="userSpaceOnUse">
<stop stop-color="#F4C430"/>
<stop offset="1" stop-color="#8A2BE2"/>
</linearGradient>
<linearGradient id="paint29_linear_373_321" x1="1100.9" y1="276.937" x2="1100.9" y2="274.128" gradientUnits="userSpaceOnUse">
<stop stop-color="#F4C430"/>
<stop offset="1" stop-color="#8A2BE2"/>
</linearGradient>
<linearGradient id="paint30_linear_373_321" x1="870.056" y1="282.151" x2="870.056" y2="278.139" gradientUnits="userSpaceOnUse">
<stop stop-color="#F4C430"/>
<stop offset="1" stop-color="#8A2BE2"/>
</linearGradient>
<linearGradient id="paint31_linear_373_321" x1="878.476" y1="282.151" x2="878.476" y2="278.139" gradientUnits="userSpaceOnUse">
<stop stop-color="#F4C430"/>
<stop offset="1" stop-color="#8A2BE2"/>
</linearGradient>
<linearGradient id="paint32_linear_373_321" x1="886.896" y1="282.151" x2="886.896" y2="278.139" gradientUnits="userSpaceOnUse">
<stop stop-color="#F4C430"/>
<stop offset="1" stop-color="#8A2BE2"/>
</linearGradient>
<linearGradient id="paint33_linear_373_321" x1="894.421" y1="281.942" x2="894.421" y2="278.14" gradientUnits="userSpaceOnUse">
<stop stop-color="#F4C430"/>
<stop offset="1" stop-color="#8A2BE2"/>
</linearGradient>
<linearGradient id="paint34_linear_373_321" x1="901.437" y1="281.942" x2="901.437" y2="278.14" gradientUnits="userSpaceOnUse">
<stop stop-color="#F4C430"/>
<stop offset="1" stop-color="#8A2BE2"/>
</linearGradient>
<linearGradient id="paint35_linear_373_321" x1="908.454" y1="281.942" x2="908.454" y2="278.14" gradientUnits="userSpaceOnUse">
<stop stop-color="#F4C430"/>
<stop offset="1" stop-color="#8A2BE2"/>
</linearGradient>
<linearGradient id="paint36_linear_373_321" x1="1064.76" y1="284.826" x2="1064.76" y2="280.814" gradientUnits="userSpaceOnUse">
<stop stop-color="#F4C430"/>
<stop offset="1" stop-color="#8A2BE2"/>
</linearGradient>
<linearGradient id="paint37_linear_373_321" x1="1068.6" y1="284.36" x2="1068.6" y2="281.049" gradientUnits="userSpaceOnUse">
<stop stop-color="#F4C430"/>
<stop offset="1" stop-color="#8A2BE2"/>
</linearGradient>
<linearGradient id="paint38_linear_373_321" x1="1073.54" y1="284.826" x2="1073.54" y2="281.349" gradientUnits="userSpaceOnUse">
<stop stop-color="#F4C430"/>
<stop offset="1" stop-color="#8A2BE2"/>
</linearGradient>
<linearGradient id="paint39_linear_373_321" x1="1078.42" y1="284.36" x2="1078.42" y2="281.049" gradientUnits="userSpaceOnUse">
<stop stop-color="#F4C430"/>
<stop offset="1" stop-color="#8A2BE2"/>
</linearGradient>
<linearGradient id="paint40_linear_373_321" x1="1086.17" y1="284.826" x2="1086.17" y2="280.814" gradientUnits="userSpaceOnUse">
<stop stop-color="#F4C430"/>
<stop offset="1" stop-color="#8A2BE2"/>
</linearGradient>
<linearGradient id="paint41_linear_373_321" x1="1093.18" y1="284.826" x2="1093.18" y2="280.814" gradientUnits="userSpaceOnUse">
<stop stop-color="#F4C430"/>
<stop offset="1" stop-color="#8A2BE2"/>
</linearGradient>
<linearGradient id="paint42_linear_373_321" x1="1100.9" y1="284.826" x2="1100.9" y2="280.814" gradientUnits="userSpaceOnUse">
<stop stop-color="#F4C430"/>
<stop offset="1" stop-color="#8A2BE2"/>
</linearGradient>
<linearGradient id="paint43_linear_373_321" x1="877.806" y1="288.837" x2="877.806" y2="284.947" gradientUnits="userSpaceOnUse">
<stop stop-color="#F4C430"/>
<stop offset="1" stop-color="#8A2BE2"/>
</linearGradient>
<linearGradient id="paint44_linear_373_321" x1="886.198" y1="288.837" x2="886.198" y2="285.358" gradientUnits="userSpaceOnUse">
<stop stop-color="#F4C430"/>
<stop offset="1" stop-color="#8A2BE2"/>
</linearGradient>
<linearGradient id="paint45_linear_373_321" x1="870.056" y1="288.837" x2="870.056" y2="286.163" gradientUnits="userSpaceOnUse">
<stop stop-color="#F4C430"/>
<stop offset="1" stop-color="#8A2BE2"/>
</linearGradient>
<linearGradient id="paint46_linear_373_321" x1="894.614" y1="288.837" x2="894.614" y2="286.163" gradientUnits="userSpaceOnUse">
<stop stop-color="#F4C430"/>
<stop offset="1" stop-color="#8A2BE2"/>
</linearGradient>
<linearGradient id="paint47_linear_373_321" x1="901.63" y1="288.837" x2="901.63" y2="286.163" gradientUnits="userSpaceOnUse">
<stop stop-color="#F4C430"/>
<stop offset="1" stop-color="#8A2BE2"/>
</linearGradient>
<linearGradient id="paint48_linear_373_321" x1="908.366" y1="288.837" x2="908.366" y2="286.163" gradientUnits="userSpaceOnUse">
<stop stop-color="#F4C430"/>
<stop offset="1" stop-color="#8A2BE2"/>
</linearGradient>
<linearGradient id="paint49_linear_373_321" x1="1065.12" y1="291.512" x2="1065.12" y2="287.5" gradientUnits="userSpaceOnUse">
<stop stop-color="#F4C430"/>
<stop offset="1" stop-color="#8A2BE2"/>
</linearGradient>
<linearGradient id="paint50_linear_373_321" x1="1072.81" y1="291.046" x2="1072.81" y2="287.735" gradientUnits="userSpaceOnUse">
<stop stop-color="#F4C430"/>
<stop offset="1" stop-color="#8A2BE2"/>
</linearGradient>
<linearGradient id="paint51_linear_373_321" x1="1078.42" y1="291.046" x2="1078.42" y2="287.735" gradientUnits="userSpaceOnUse">
<stop stop-color="#F4C430"/>
<stop offset="1" stop-color="#8A2BE2"/>
</linearGradient>
<linearGradient id="paint52_linear_373_321" x1="1086.38" y1="291.512" x2="1086.38" y2="287.5" gradientUnits="userSpaceOnUse">
<stop stop-color="#F4C430"/>
<stop offset="1" stop-color="#8A2BE2"/>
</linearGradient>
<linearGradient id="paint53_linear_373_321" x1="1093.18" y1="291.512" x2="1093.18" y2="287.5" gradientUnits="userSpaceOnUse">
<stop stop-color="#F4C430"/>
<stop offset="1" stop-color="#8A2BE2"/>
</linearGradient>
<linearGradient id="paint54_linear_373_321" x1="1100.9" y1="291.512" x2="1100.9" y2="287.5" gradientUnits="userSpaceOnUse">
<stop stop-color="#F4C430"/>
<stop offset="1" stop-color="#8A2BE2"/>
</linearGradient>
<linearGradient id="paint55_linear_373_321" x1="870.056" y1="296.325" x2="870.056" y2="292.848" gradientUnits="userSpaceOnUse">
<stop stop-color="#F4C430"/>
<stop offset="1" stop-color="#8A2BE2"/>
</linearGradient>
<linearGradient id="paint56_linear_373_321" x1="878.476" y1="296.861" x2="878.476" y2="292.849" gradientUnits="userSpaceOnUse">
<stop stop-color="#F4C430"/>
<stop offset="1" stop-color="#8A2BE2"/>
</linearGradient>
<linearGradient id="paint57_linear_373_321" x1="886.896" y1="296.861" x2="886.896" y2="292.849" gradientUnits="userSpaceOnUse">
<stop stop-color="#F4C430"/>
<stop offset="1" stop-color="#8A2BE2"/>
</linearGradient>
<linearGradient id="paint58_linear_373_321" x1="894.052" y1="296.645" x2="894.052" y2="293.065" gradientUnits="userSpaceOnUse">
<stop stop-color="#F4C430"/>
<stop offset="1" stop-color="#8A2BE2"/>
</linearGradient>
<linearGradient id="paint59_linear_373_321" x1="901.437" y1="296.651" x2="901.437" y2="292.849" gradientUnits="userSpaceOnUse">
<stop stop-color="#F4C430"/>
<stop offset="1" stop-color="#8A2BE2"/>
</linearGradient>
<linearGradient id="paint60_linear_373_321" x1="908.454" y1="296.651" x2="908.454" y2="292.849" gradientUnits="userSpaceOnUse">
<stop stop-color="#F4C430"/>
<stop offset="1" stop-color="#8A2BE2"/>
</linearGradient>
<linearGradient id="paint61_linear_373_321" x1="499.581" y1="296.861" x2="499.581" y2="294.186" gradientUnits="userSpaceOnUse">
<stop stop-color="#F4C430"/>
<stop offset="1" stop-color="#8A2BE2"/>
</linearGradient>
<linearGradient id="paint62_linear_373_321" x1="506.597" y1="296.861" x2="506.597" y2="294.186" gradientUnits="userSpaceOnUse">
<stop stop-color="#F4C430"/>
<stop offset="1" stop-color="#8A2BE2"/>
</linearGradient>
<linearGradient id="paint63_linear_373_321" x1="1065.12" y1="299.535" x2="1065.12" y2="295.524" gradientUnits="userSpaceOnUse">
<stop stop-color="#F4C430"/>
<stop offset="1" stop-color="#8A2BE2"/>
</linearGradient>
<linearGradient id="paint64_linear_373_321" x1="1072.81" y1="299.07" x2="1072.81" y2="295.758" gradientUnits="userSpaceOnUse">
<stop stop-color="#F4C430"/>
<stop offset="1" stop-color="#8A2BE2"/>
</linearGradient>
<linearGradient id="paint65_linear_373_321" x1="1086.42" y1="298.197" x2="1086.42" y2="295.523" gradientUnits="userSpaceOnUse">
<stop stop-color="#F4C430"/>
<stop offset="1" stop-color="#8A2BE2"/>
</linearGradient>
<linearGradient id="paint66_linear_373_321" x1="1092.97" y1="299.535" x2="1092.97" y2="295.524" gradientUnits="userSpaceOnUse">
<stop stop-color="#F4C430"/>
<stop offset="1" stop-color="#8A2BE2"/>
</linearGradient>
<linearGradient id="paint67_linear_373_321" x1="1100.9" y1="298.197" x2="1100.9" y2="295.523" gradientUnits="userSpaceOnUse">
<stop stop-color="#F4C430"/>
<stop offset="1" stop-color="#8A2BE2"/>
</linearGradient>
<linearGradient id="paint68_linear_373_321" x1="870.757" y1="304.261" x2="870.757" y2="299.534" gradientUnits="userSpaceOnUse">
<stop stop-color="#F4C430"/>
<stop offset="1" stop-color="#8A2BE2"/>
</linearGradient>
<linearGradient id="paint69_linear_373_321" x1="878.476" y1="304.884" x2="878.476" y2="299.535" gradientUnits="userSpaceOnUse">
<stop stop-color="#F4C430"/>
<stop offset="1" stop-color="#8A2BE2"/>
</linearGradient>
<linearGradient id="paint70_linear_373_321" x1="886.896" y1="303.546" x2="886.896" y2="299.535" gradientUnits="userSpaceOnUse">
<stop stop-color="#F4C430"/>
<stop offset="1" stop-color="#8A2BE2"/>
</linearGradient>
<linearGradient id="paint71_linear_373_321" x1="894.462" y1="303.413" x2="894.462" y2="300.153" gradientUnits="userSpaceOnUse">
<stop stop-color="#F4C430"/>
<stop offset="1" stop-color="#8A2BE2"/>
</linearGradient>
<linearGradient id="paint72_linear_373_321" x1="901.634" y1="303.546" x2="901.634" y2="300.067" gradientUnits="userSpaceOnUse">
<stop stop-color="#F4C430"/>
<stop offset="1" stop-color="#8A2BE2"/>
</linearGradient>
<linearGradient id="paint73_linear_373_321" x1="907.945" y1="303.546" x2="907.945" y2="300.07" gradientUnits="userSpaceOnUse">
<stop stop-color="#F4C430"/>
<stop offset="1" stop-color="#8A2BE2"/>
</linearGradient>
<linearGradient id="paint74_linear_373_321" x1="499.581" y1="303.546" x2="499.581" y2="300.872" gradientUnits="userSpaceOnUse">
<stop stop-color="#F4C430"/>
<stop offset="1" stop-color="#8A2BE2"/>
</linearGradient>
<linearGradient id="paint75_linear_373_321" x1="506.597" y1="303.546" x2="506.597" y2="300.872" gradientUnits="userSpaceOnUse">
<stop stop-color="#F4C430"/>
<stop offset="1" stop-color="#8A2BE2"/>
</linearGradient>
<linearGradient id="paint76_linear_373_321" x1="1065.2" y1="307.068" x2="1065.2" y2="303.186" gradientUnits="userSpaceOnUse">
<stop stop-color="#F4C430"/>
<stop offset="1" stop-color="#8A2BE2"/>
</linearGradient>
<linearGradient id="paint77_linear_373_321" x1="1072.87" y1="306.908" x2="1072.87" y2="302.811" gradientUnits="userSpaceOnUse">
<stop stop-color="#F4C430"/>
<stop offset="1" stop-color="#8A2BE2"/>
</linearGradient>
<linearGradient id="paint78_linear_373_321" x1="1078.42" y1="305.756" x2="1078.42" y2="302.445" gradientUnits="userSpaceOnUse">
<stop stop-color="#F4C430"/>
<stop offset="1" stop-color="#8A2BE2"/>
</linearGradient>
<linearGradient id="paint79_linear_373_321" x1="1086.84" y1="305.756" x2="1086.84" y2="302.445" gradientUnits="userSpaceOnUse">
<stop stop-color="#F4C430"/>
<stop offset="1" stop-color="#8A2BE2"/>
</linearGradient>
<linearGradient id="paint80_linear_373_321" x1="1101.6" y1="307.6" x2="1101.6" y2="302.243" gradientUnits="userSpaceOnUse">
<stop stop-color="#F4C430"/>
<stop offset="1" stop-color="#8A2BE2"/>
</linearGradient>
<linearGradient id="paint81_linear_373_321" x1="1093.18" y1="306.221" x2="1093.18" y2="303.546" gradientUnits="userSpaceOnUse">
<stop stop-color="#F4C430"/>
<stop offset="1" stop-color="#8A2BE2"/>
</linearGradient>
<linearGradient id="paint82_linear_373_321" x1="499.581" y1="311.57" x2="499.581" y2="307.558" gradientUnits="userSpaceOnUse">
<stop stop-color="#F4C430"/>
<stop offset="1" stop-color="#8A2BE2"/>
</linearGradient>
<linearGradient id="paint83_linear_373_321" x1="870.757" y1="311.57" x2="870.757" y2="307.558" gradientUnits="userSpaceOnUse">
<stop stop-color="#F4C430"/>
<stop offset="1" stop-color="#8A2BE2"/>
</linearGradient>
<linearGradient id="paint84_linear_373_321" x1="878.476" y1="311.57" x2="878.476" y2="307.558" gradientUnits="userSpaceOnUse">
<stop stop-color="#F4C430"/>
<stop offset="1" stop-color="#8A2BE2"/>
</linearGradient>
<linearGradient id="paint85_linear_373_321" x1="886.896" y1="311.57" x2="886.896" y2="307.558" gradientUnits="userSpaceOnUse">
<stop stop-color="#F4C430"/>
<stop offset="1" stop-color="#8A2BE2"/>
</linearGradient>
<linearGradient id="paint86_linear_373_321" x1="893.912" y1="311.57" x2="893.912" y2="307.558" gradientUnits="userSpaceOnUse">
<stop stop-color="#F4C430"/>
<stop offset="1" stop-color="#8A2BE2"/>
</linearGradient>
<linearGradient id="paint87_linear_373_321" x1="1065.23" y1="314.241" x2="1065.23" y2="310.333" gradientUnits="userSpaceOnUse">
<stop stop-color="#F4C430"/>
<stop offset="1" stop-color="#8A2BE2"/>
</linearGradient>
<linearGradient id="paint88_linear_373_321" x1="1078.42" y1="313.779" x2="1078.42" y2="310.467" gradientUnits="userSpaceOnUse">
<stop stop-color="#F4C430"/>
<stop offset="1" stop-color="#8A2BE2"/>
</linearGradient>
<linearGradient id="paint89_linear_373_321" x1="1092.97" y1="314.244" x2="1092.97" y2="310.233" gradientUnits="userSpaceOnUse">
<stop stop-color="#F4C430"/>
<stop offset="1" stop-color="#8A2BE2"/>
</linearGradient>
<linearGradient id="paint90_linear_373_321" x1="1101.24" y1="314.244" x2="1101.24" y2="310.233" gradientUnits="userSpaceOnUse">
<stop stop-color="#F4C430"/>
<stop offset="1" stop-color="#8A2BE2"/>
</linearGradient>
<linearGradient id="paint91_linear_373_321" x1="499.581" y1="319.593" x2="499.581" y2="315.582" gradientUnits="userSpaceOnUse">
<stop stop-color="#F4C430"/>
<stop offset="1" stop-color="#8A2BE2"/>
</linearGradient>
<linearGradient id="paint92_linear_373_321" x1="506.597" y1="318.255" x2="506.597" y2="315.581" gradientUnits="userSpaceOnUse">
<stop stop-color="#F4C430"/>
<stop offset="1" stop-color="#8A2BE2"/>
</linearGradient>
<linearGradient id="paint93_linear_373_321" x1="870.757" y1="319.593" x2="870.757" y2="315.582" gradientUnits="userSpaceOnUse">
<stop stop-color="#F4C430"/>
<stop offset="1" stop-color="#8A2BE2"/>
</linearGradient>
<linearGradient id="paint94_linear_373_321" x1="878.476" y1="319.593" x2="878.476" y2="315.582" gradientUnits="userSpaceOnUse">
<stop stop-color="#F4C430"/>
<stop offset="1" stop-color="#8A2BE2"/>
</linearGradient>
<linearGradient id="paint95_linear_373_321" x1="886.896" y1="319.593" x2="886.896" y2="315.582" gradientUnits="userSpaceOnUse">
<stop stop-color="#F4C430"/>
<stop offset="1" stop-color="#8A2BE2"/>
</linearGradient>
<linearGradient id="paint96_linear_373_321" x1="893.912" y1="319.058" x2="893.912" y2="315.581" gradientUnits="userSpaceOnUse">
<stop stop-color="#F4C430"/>
<stop offset="1" stop-color="#8A2BE2"/>
</linearGradient>
<linearGradient id="paint97_linear_373_321" x1="900.928" y1="318.255" x2="900.928" y2="315.581" gradientUnits="userSpaceOnUse">
<stop stop-color="#F4C430"/>
<stop offset="1" stop-color="#8A2BE2"/>
</linearGradient>
<linearGradient id="paint98_linear_373_321" x1="907.945" y1="318.255" x2="907.945" y2="315.581" gradientUnits="userSpaceOnUse">
<stop stop-color="#F4C430"/>
<stop offset="1" stop-color="#8A2BE2"/>
</linearGradient>
<linearGradient id="paint99_linear_373_321" x1="1065.12" y1="322.268" x2="1065.12" y2="318.256" gradientUnits="userSpaceOnUse">
<stop stop-color="#F4C430"/>
<stop offset="1" stop-color="#8A2BE2"/>
</linearGradient>
<linearGradient id="paint100_linear_373_321" x1="1072.81" y1="321.802" x2="1072.81" y2="318.49" gradientUnits="userSpaceOnUse">
<stop stop-color="#F4C430"/>
<stop offset="1" stop-color="#8A2BE2"/>
</linearGradient>
<linearGradient id="paint101_linear_373_321" x1="1078.83" y1="322.268" x2="1078.83" y2="318.256" gradientUnits="userSpaceOnUse">
<stop stop-color="#F4C430"/>
<stop offset="1" stop-color="#8A2BE2"/>
</linearGradient>
<linearGradient id="paint102_linear_373_321" x1="1085.96" y1="322.268" x2="1085.96" y2="318.256" gradientUnits="userSpaceOnUse">
<stop stop-color="#F4C430"/>
<stop offset="1" stop-color="#8A2BE2"/>
</linearGradient>
<linearGradient id="paint103_linear_373_321" x1="1093.18" y1="322.268" x2="1093.18" y2="318.256" gradientUnits="userSpaceOnUse">
<stop stop-color="#F4C430"/>
<stop offset="1" stop-color="#8A2BE2"/>
</linearGradient>
<linearGradient id="paint104_linear_373_321" x1="1101.11" y1="322.268" x2="1101.11" y2="318.256" gradientUnits="userSpaceOnUse">
<stop stop-color="#F4C430"/>
<stop offset="1" stop-color="#8A2BE2"/>
</linearGradient>
<linearGradient id="paint105_linear_373_321" x1="499.581" y1="326.279" x2="499.581" y2="322.268" gradientUnits="userSpaceOnUse">
<stop stop-color="#F4C430"/>
<stop offset="1" stop-color="#8A2BE2"/>
</linearGradient>
<linearGradient id="paint106_linear_373_321" x1="506.597" y1="326.279" x2="506.597" y2="322.268" gradientUnits="userSpaceOnUse">
<stop stop-color="#F4C430"/>
<stop offset="1" stop-color="#8A2BE2"/>
</linearGradient>
<linearGradient id="paint107_linear_373_321" x1="878.476" y1="326.279" x2="878.476" y2="323.605" gradientUnits="userSpaceOnUse">
<stop stop-color="#F4C430"/>
<stop offset="1" stop-color="#8A2BE2"/>
</linearGradient>
<linearGradient id="paint108_linear_373_321" x1="886.896" y1="327.616" x2="886.896" y2="323.605" gradientUnits="userSpaceOnUse">
<stop stop-color="#F4C430"/>
<stop offset="1" stop-color="#8A2BE2"/>
</linearGradient>
<linearGradient id="paint109_linear_373_321" x1="893.912" y1="326.279" x2="893.912" y2="323.605" gradientUnits="userSpaceOnUse">
<stop stop-color="#F4C430"/>
<stop offset="1" stop-color="#8A2BE2"/>
</linearGradient>
<linearGradient id="paint110_linear_373_321" x1="900.928" y1="326.279" x2="900.928" y2="323.605" gradientUnits="userSpaceOnUse">
<stop stop-color="#F4C430"/>
<stop offset="1" stop-color="#8A2BE2"/>
</linearGradient>
<linearGradient id="paint111_linear_373_321" x1="1065.12" y1="328.954" x2="1065.12" y2="326.28" gradientUnits="userSpaceOnUse">
<stop stop-color="#F4C430"/>
<stop offset="1" stop-color="#8A2BE2"/>
</linearGradient>
<linearGradient id="paint112_linear_373_321" x1="1093.18" y1="328.954" x2="1093.18" y2="326.28" gradientUnits="userSpaceOnUse">
<stop stop-color="#F4C430"/>
<stop offset="1" stop-color="#8A2BE2"/>
</linearGradient>
<linearGradient id="paint113_linear_373_321" x1="1101.02" y1="328.795" x2="1101.02" y2="327.724" gradientUnits="userSpaceOnUse">
<stop stop-color="#F4C430"/>
<stop offset="1" stop-color="#8A2BE2"/>
</linearGradient>
<linearGradient id="paint114_linear_373_321" x1="499.581" y1="331.628" x2="499.581" y2="328.954" gradientUnits="userSpaceOnUse">
<stop stop-color="#F4C430"/>
<stop offset="1" stop-color="#8A2BE2"/>
</linearGradient>
<linearGradient id="paint115_linear_373_321" x1="506.597" y1="331.628" x2="506.597" y2="328.954" gradientUnits="userSpaceOnUse">
<stop stop-color="#F4C430"/>
<stop offset="1" stop-color="#8A2BE2"/>
</linearGradient>
<linearGradient id="paint116_linear_373_321" x1="893.885" y1="334.027" x2="893.885" y2="330.726" gradientUnits="userSpaceOnUse">
<stop stop-color="#F4C430"/>
<stop offset="1" stop-color="#8A2BE2"/>
</linearGradient>
<linearGradient id="paint117_linear_373_321" x1="870.757" y1="334.302" x2="870.757" y2="332.029" gradientUnits="userSpaceOnUse">
<stop stop-color="#F4C430"/>
<stop offset="1" stop-color="#8A2BE2"/>
</linearGradient>
<linearGradient id="paint118_linear_373_321" x1="878.896" y1="334.302" x2="878.896" y2="331.628" gradientUnits="userSpaceOnUse">
<stop stop-color="#F4C430"/>
<stop offset="1" stop-color="#8A2BE2"/>
</linearGradient>
<linearGradient id="paint119_linear_373_321" x1="886.896" y1="334.302" x2="886.896" y2="331.628" gradientUnits="userSpaceOnUse">
<stop stop-color="#F4C430"/>
<stop offset="1" stop-color="#8A2BE2"/>
</linearGradient>
<linearGradient id="paint120_linear_373_321" x1="1065.12" y1="336.977" x2="1065.12" y2="334.303" gradientUnits="userSpaceOnUse">
<stop stop-color="#F4C430"/>
<stop offset="1" stop-color="#8A2BE2"/>
</linearGradient>
<linearGradient id="paint121_linear_373_321" x1="893.912" y1="342.326" x2="893.912" y2="339.651" gradientUnits="userSpaceOnUse">
<stop stop-color="#F4C430"/>
<stop offset="1" stop-color="#8A2BE2"/>
</linearGradient>
<linearGradient id="paint122_linear_373_321" x1="804.123" y1="350.349" x2="804.123" y2="346.937" gradientUnits="userSpaceOnUse">
<stop stop-color="#F4C430"/>
<stop offset="1" stop-color="#8A2BE2"/>
</linearGradient>
<linearGradient id="paint123_linear_373_321" x1="1361.91" y1="407.849" x2="1361.91" y2="346.337" gradientUnits="userSpaceOnUse">
<stop stop-color="#F4C430"/>
<stop offset="1" stop-color="#8A2BE2"/>
</linearGradient>
<linearGradient id="paint124_linear_373_321" x1="878.476" y1="349.869" x2="878.476" y2="347.674" gradientUnits="userSpaceOnUse">
<stop stop-color="#F4C430"/>
<stop offset="1" stop-color="#8A2BE2"/>
</linearGradient>
<linearGradient id="paint125_linear_373_321" x1="800.824" y1="431.919" x2="800.824" y2="353.109" gradientUnits="userSpaceOnUse">
<stop stop-color="#F4C430"/>
<stop offset="1" stop-color="#8A2BE2"/>
</linearGradient>
<linearGradient id="paint126_linear_373_321" x1="1042.66" y1="363.721" x2="1042.66" y2="358.938" gradientUnits="userSpaceOnUse">
<stop stop-color="#F4C430"/>
<stop offset="1" stop-color="#8A2BE2"/>
</linearGradient>
<linearGradient id="paint127_linear_373_321" x1="1054.59" y1="363.223" x2="1054.59" y2="358.87" gradientUnits="userSpaceOnUse">
<stop stop-color="#F4C430"/>
<stop offset="1" stop-color="#8A2BE2"/>
</linearGradient>
<linearGradient id="paint128_linear_373_321" x1="1027.93" y1="363.721" x2="1027.93" y2="359.709" gradientUnits="userSpaceOnUse">
<stop stop-color="#F4C430"/>
<stop offset="1" stop-color="#8A2BE2"/>
</linearGradient>
<linearGradient id="paint129_linear_373_321" x1="1035.65" y1="363.721" x2="1035.65" y2="359.709" gradientUnits="userSpaceOnUse">
<stop stop-color="#F4C430"/>
<stop offset="1" stop-color="#8A2BE2"/>
</linearGradient>
<linearGradient id="paint130_linear_373_321" x1="1048.28" y1="363.721" x2="1048.28" y2="359.709" gradientUnits="userSpaceOnUse">
<stop stop-color="#F4C430"/>
<stop offset="1" stop-color="#8A2BE2"/>
</linearGradient>
<linearGradient id="paint131_linear_373_321" x1="1062.31" y1="362.384" x2="1062.31" y2="359.709" gradientUnits="userSpaceOnUse">
<stop stop-color="#F4C430"/>
<stop offset="1" stop-color="#8A2BE2"/>
</linearGradient>
<linearGradient id="paint132_linear_373_321" x1="1404.9" y1="398.354" x2="1404.9" y2="361.046" gradientUnits="userSpaceOnUse">
<stop stop-color="#F4C430"/>
<stop offset="1" stop-color="#8A2BE2"/>
</linearGradient>
<linearGradient id="paint133_linear_373_321" x1="894.586" y1="365.93" x2="894.586" y2="362.619" gradientUnits="userSpaceOnUse">
<stop stop-color="#F4C430"/>
<stop offset="1" stop-color="#8A2BE2"/>
</linearGradient>
<linearGradient id="paint134_linear_373_321" x1="1027.93" y1="371.744" x2="1027.93" y2="367.733" gradientUnits="userSpaceOnUse">
<stop stop-color="#F4C430"/>
<stop offset="1" stop-color="#8A2BE2"/>
</linearGradient>
<linearGradient id="paint135_linear_373_321" x1="1035.65" y1="371.744" x2="1035.65" y2="367.733" gradientUnits="userSpaceOnUse">
<stop stop-color="#F4C430"/>
<stop offset="1" stop-color="#8A2BE2"/>
</linearGradient>
<linearGradient id="paint136_linear_373_321" x1="1042.66" y1="371.744" x2="1042.66" y2="367.733" gradientUnits="userSpaceOnUse">
<stop stop-color="#F4C430"/>
<stop offset="1" stop-color="#8A2BE2"/>
</linearGradient>
<linearGradient id="paint137_linear_373_321" x1="1048.28" y1="371.744" x2="1048.28" y2="367.733" gradientUnits="userSpaceOnUse">
<stop stop-color="#F4C430"/>
<stop offset="1" stop-color="#8A2BE2"/>
</linearGradient>
<linearGradient id="paint138_linear_373_321" x1="1054.56" y1="371.279" x2="1054.56" y2="367.967" gradientUnits="userSpaceOnUse">
<stop stop-color="#F4C430"/>
<stop offset="1" stop-color="#8A2BE2"/>
</linearGradient>
<linearGradient id="paint139_linear_373_321" x1="1062.31" y1="371.744" x2="1062.31" y2="367.733" gradientUnits="userSpaceOnUse">
<stop stop-color="#F4C430"/>
<stop offset="1" stop-color="#8A2BE2"/>
</linearGradient>
<linearGradient id="paint140_linear_373_321" x1="869.327" y1="373.953" x2="869.327" y2="370.642" gradientUnits="userSpaceOnUse">
<stop stop-color="#F4C430"/>
<stop offset="1" stop-color="#8A2BE2"/>
</linearGradient>
<linearGradient id="paint141_linear_373_321" x1="1028.63" y1="379.768" x2="1028.63" y2="375.756" gradientUnits="userSpaceOnUse">
<stop stop-color="#F4C430"/>
<stop offset="1" stop-color="#8A2BE2"/>
</linearGradient>
<linearGradient id="paint142_linear_373_321" x1="1035.65" y1="379.768" x2="1035.65" y2="375.756" gradientUnits="userSpaceOnUse">
<stop stop-color="#F4C430"/>
<stop offset="1" stop-color="#8A2BE2"/>
</linearGradient>
<linearGradient id="paint143_linear_373_321" x1="1042.66" y1="379.232" x2="1042.66" y2="375.756" gradientUnits="userSpaceOnUse">
<stop stop-color="#F4C430"/>
<stop offset="1" stop-color="#8A2BE2"/>
</linearGradient>
<linearGradient id="paint144_linear_373_321" x1="1048.28" y1="378.43" x2="1048.28" y2="375.755" gradientUnits="userSpaceOnUse">
<stop stop-color="#F4C430"/>
<stop offset="1" stop-color="#8A2BE2"/>
</linearGradient>
<linearGradient id="paint145_linear_373_321" x1="1054.56" y1="379.302" x2="1054.56" y2="375.991" gradientUnits="userSpaceOnUse">
<stop stop-color="#F4C430"/>
<stop offset="1" stop-color="#8A2BE2"/>
</linearGradient>
<linearGradient id="paint146_linear_373_321" x1="1062.31" y1="379.768" x2="1062.31" y2="375.756" gradientUnits="userSpaceOnUse">
<stop stop-color="#F4C430"/>
<stop offset="1" stop-color="#8A2BE2"/>
</linearGradient>
<linearGradient id="paint147_linear_373_321" x1="1405.42" y1="438.604" x2="1405.42" y2="379.767" gradientUnits="userSpaceOnUse">
<stop stop-color="#F4C430"/>
<stop offset="1" stop-color="#8A2BE2"/>
</linearGradient>
<linearGradient id="paint148_linear_373_321" x1="1028.63" y1="387.791" x2="1028.63" y2="383.779" gradientUnits="userSpaceOnUse">
<stop stop-color="#F4C430"/>
<stop offset="1" stop-color="#8A2BE2"/>
</linearGradient>
<linearGradient id="paint149_linear_373_321" x1="1035.97" y1="387.791" x2="1035.97" y2="383.779" gradientUnits="userSpaceOnUse">
<stop stop-color="#F4C430"/>
<stop offset="1" stop-color="#8A2BE2"/>
</linearGradient>
<linearGradient id="paint150_linear_373_321" x1="1042.66" y1="387.255" x2="1042.66" y2="383.779" gradientUnits="userSpaceOnUse">
<stop stop-color="#F4C430"/>
<stop offset="1" stop-color="#8A2BE2"/>
</linearGradient>
<linearGradient id="paint151_linear_373_321" x1="1048.53" y1="387.255" x2="1048.53" y2="383.807" gradientUnits="userSpaceOnUse">
<stop stop-color="#F4C430"/>
<stop offset="1" stop-color="#8A2BE2"/>
</linearGradient>
<linearGradient id="paint152_linear_373_321" x1="1054.56" y1="387.325" x2="1054.56" y2="384.014" gradientUnits="userSpaceOnUse">
<stop stop-color="#F4C430"/>
<stop offset="1" stop-color="#8A2BE2"/>
</linearGradient>
<linearGradient id="paint153_linear_373_321" x1="1062.31" y1="387.791" x2="1062.31" y2="383.779" gradientUnits="userSpaceOnUse">
<stop stop-color="#F4C430"/>
<stop offset="1" stop-color="#8A2BE2"/>
</linearGradient>
<linearGradient id="paint154_linear_373_321" x1="20.3481" y1="414.535" x2="20.3481" y2="389.128" gradientUnits="userSpaceOnUse">
<stop stop-color="#F4C430"/>
<stop offset="1" stop-color="#8A2BE2"/>
</linearGradient>
<linearGradient id="paint155_linear_373_321" x1="32.978" y1="414.535" x2="32.978" y2="389.128" gradientUnits="userSpaceOnUse">
<stop stop-color="#F4C430"/>
<stop offset="1" stop-color="#8A2BE2"/>
</linearGradient>
<linearGradient id="paint156_linear_373_321" x1="7.71825" y1="414.535" x2="7.71825" y2="390.465" gradientUnits="userSpaceOnUse">
<stop stop-color="#F4C430"/>
<stop offset="1" stop-color="#8A2BE2"/>
</linearGradient>
<linearGradient id="paint157_linear_373_321" x1="45.5608" y1="414.535" x2="45.5608" y2="391.248" gradientUnits="userSpaceOnUse">
<stop stop-color="#F4C430"/>
<stop offset="1" stop-color="#8A2BE2"/>
</linearGradient>
<linearGradient id="paint158_linear_373_321" x1="1028.63" y1="395.814" x2="1028.63" y2="391.802" gradientUnits="userSpaceOnUse">
<stop stop-color="#F4C430"/>
<stop offset="1" stop-color="#8A2BE2"/>
</linearGradient>
<linearGradient id="paint159_linear_373_321" x1="1035.65" y1="395.814" x2="1035.65" y2="391.802" gradientUnits="userSpaceOnUse">
<stop stop-color="#F4C430"/>
<stop offset="1" stop-color="#8A2BE2"/>
</linearGradient>
<linearGradient id="paint160_linear_373_321" x1="1043.34" y1="395.349" x2="1043.34" y2="392.038" gradientUnits="userSpaceOnUse">
<stop stop-color="#F4C430"/>
<stop offset="1" stop-color="#8A2BE2"/>
</linearGradient>
<linearGradient id="paint161_linear_373_321" x1="1048.95" y1="395.349" x2="1048.95" y2="392.038" gradientUnits="userSpaceOnUse">
<stop stop-color="#F4C430"/>
<stop offset="1" stop-color="#8A2BE2"/>
</linearGradient>
<linearGradient id="paint162_linear_373_321" x1="1054.56" y1="395.349" x2="1054.56" y2="392.038" gradientUnits="userSpaceOnUse">
<stop stop-color="#F4C430"/>
<stop offset="1" stop-color="#8A2BE2"/>
</linearGradient>
<linearGradient id="paint163_linear_373_321" x1="59.6411" y1="414.535" x2="59.6411" y2="393.139" gradientUnits="userSpaceOnUse">
<stop stop-color="#F4C430"/>
<stop offset="1" stop-color="#8A2BE2"/>
</linearGradient>
<linearGradient id="paint164_linear_373_321" x1="1062.31" y1="395.333" x2="1062.31" y2="393.139" gradientUnits="userSpaceOnUse">
<stop stop-color="#F4C430"/>
<stop offset="1" stop-color="#8A2BE2"/>
</linearGradient>
<linearGradient id="paint165_linear_373_321" x1="72.2153" y1="414.535" x2="72.2153" y2="396.884" gradientUnits="userSpaceOnUse">
<stop stop-color="#F4C430"/>
<stop offset="1" stop-color="#8A2BE2"/>
</linearGradient>
<linearGradient id="paint166_linear_373_321" x1="1028.63" y1="403.837" x2="1028.63" y2="399.826" gradientUnits="userSpaceOnUse">
<stop stop-color="#F4C430"/>
<stop offset="1" stop-color="#8A2BE2"/>
</linearGradient>
<linearGradient id="paint167_linear_373_321" x1="1036.32" y1="403.372" x2="1036.32" y2="400.061" gradientUnits="userSpaceOnUse">
<stop stop-color="#F4C430"/>
<stop offset="1" stop-color="#8A2BE2"/>
</linearGradient>
<linearGradient id="paint168_linear_373_321" x1="1044.07" y1="403.302" x2="1044.07" y2="399.826" gradientUnits="userSpaceOnUse">
<stop stop-color="#F4C430"/>
<stop offset="1" stop-color="#8A2BE2"/>
</linearGradient>
<linearGradient id="paint169_linear_373_321" x1="1048.95" y1="403.372" x2="1048.95" y2="400.061" gradientUnits="userSpaceOnUse">
<stop stop-color="#F4C430"/>
<stop offset="1" stop-color="#8A2BE2"/>
</linearGradient>
<linearGradient id="paint170_linear_373_321" x1="1054.56" y1="403.372" x2="1054.56" y2="400.061" gradientUnits="userSpaceOnUse">
<stop stop-color="#F4C430"/>
<stop offset="1" stop-color="#8A2BE2"/>
</linearGradient>
<linearGradient id="paint171_linear_373_321" x1="1062.31" y1="403.357" x2="1062.31" y2="401.163" gradientUnits="userSpaceOnUse">
<stop stop-color="#F4C430"/>
<stop offset="1" stop-color="#8A2BE2"/>
</linearGradient>
<linearGradient id="paint172_linear_373_321" x1="85.602" y1="414.535" x2="85.602" y2="402.366" gradientUnits="userSpaceOnUse">
<stop stop-color="#F4C430"/>
<stop offset="1" stop-color="#8A2BE2"/>
</linearGradient>
<linearGradient id="paint173_linear_373_321" x1="1028.63" y1="410.523" x2="1028.63" y2="407.849" gradientUnits="userSpaceOnUse">
<stop stop-color="#F4C430"/>
<stop offset="1" stop-color="#8A2BE2"/>
</linearGradient>
<linearGradient id="paint174_linear_373_321" x1="1043.81" y1="410.523" x2="1043.81" y2="407.849" gradientUnits="userSpaceOnUse">
<stop stop-color="#F4C430"/>
<stop offset="1" stop-color="#8A2BE2"/>
</linearGradient>
<linearGradient id="paint175_linear_373_321" x1="1437.8" y1="433.256" x2="1437.8" y2="407.849" gradientUnits="userSpaceOnUse">
<stop stop-color="#F4C430"/>
<stop offset="1" stop-color="#8A2BE2"/>
</linearGradient>
<linearGradient id="paint176_linear_373_321" x1="98.2324" y1="414.535" x2="98.2324" y2="411.071" gradientUnits="userSpaceOnUse">
<stop stop-color="#F4C430"/>
<stop offset="1" stop-color="#8A2BE2"/>
</linearGradient>
<linearGradient id="paint177_linear_373_321" x1="209.914" y1="453.982" x2="209.914" y2="422.764" gradientUnits="userSpaceOnUse">
<stop stop-color="#F4C430"/>
<stop offset="1" stop-color="#8A2BE2"/>
</linearGradient>
<linearGradient id="paint178_linear_373_321" x1="188.48" y1="443.644" x2="188.48" y2="433.221" gradientUnits="userSpaceOnUse">
<stop stop-color="#F4C430"/>
<stop offset="1" stop-color="#8A2BE2"/>
</linearGradient>
<linearGradient id="paint179_linear_373_321" x1="194.332" y1="444.825" x2="194.332" y2="441.514" gradientUnits="userSpaceOnUse">
<stop stop-color="#F4C430"/>
<stop offset="1" stop-color="#8A2BE2"/>
</linearGradient>
<linearGradient id="paint180_linear_373_321" x1="468.127" y1="445.132" x2="468.127" y2="444.061" gradientUnits="userSpaceOnUse">
<stop stop-color="#F4C430"/>
<stop offset="1" stop-color="#8A2BE2"/>
</linearGradient>
<linearGradient id="paint181_linear_373_321" x1="207.024" y1="450.892" x2="207.024" y2="445.943" gradientUnits="userSpaceOnUse">
<stop stop-color="#F4C430"/>
<stop offset="1" stop-color="#8A2BE2"/>
</linearGradient>
<linearGradient id="paint182_linear_373_321" x1="477.934" y1="457.847" x2="477.934" y2="448.733" gradientUnits="userSpaceOnUse">
<stop stop-color="#F4C430"/>
<stop offset="1" stop-color="#8A2BE2"/>
</linearGradient>
<linearGradient id="paint183_linear_373_321" x1="450.971" y1="460" x2="450.971" y2="447.965" gradientUnits="userSpaceOnUse">
<stop stop-color="#F4C430"/>
<stop offset="1" stop-color="#8A2BE2"/>
</linearGradient>
<linearGradient id="paint184_linear_373_321" x1="292.591" y1="458.663" x2="292.591" y2="451.977" gradientUnits="userSpaceOnUse">
<stop stop-color="#F4C430"/>
<stop offset="1" stop-color="#8A2BE2"/>
</linearGradient>
<linearGradient id="paint185_linear_373_321" x1="461.024" y1="458.916" x2="461.024" y2="453.967" gradientUnits="userSpaceOnUse">
<stop stop-color="#F4C430"/>
<stop offset="1" stop-color="#8A2BE2"/>
</linearGradient>
</defs>
</svg>
